<?xml version="1.0" encoding="UTF-8" standalone="no"?>
<!-- Created with Inkscape (http://www.inkscape.org/) -->
<svg
   xmlns:svg="http://www.w3.org/2000/svg"
   xmlns="http://www.w3.org/2000/svg"
   version="1.0"
   width="196.16901"
   height="270"
   viewBox="0 0 196.169 270"
   id="svg2208"
   xml:space="preserve"><defs
   id="defs2216" />
	
		<g
   id="Layer_1">
			<path
   d="M 182.97,128.883 C 177.276,138.943 162.851,160.01 152.223,173.865 C 141.594,187.72 128.118,202.145 124.702,206.511 C 121.286,210.877 120.147,212.015 119.388,213.344 C 119.327,213.449 119.259,213.58 119.188,213.724 C 118.894,217.752 118.141,227.93 117.662,233.273 C 117.534,234.689 117.333,236.317 117.074,238.022 C 117.262,238.255 117.424,238.376 117.49,238.777 C 117.586,239.346 117.775,240.011 117.775,240.011 C 117.775,240.011 117.68,241.15 117.68,241.719 C 117.68,242.288 117.869,242.763 118.06,243.427 C 118.249,244.091 118.439,244.566 118.724,245.04 C 119.009,245.514 118.535,246.273 118.535,247.223 C 118.535,248.173 118.439,247.698 118.439,248.077 C 118.439,248.456 118.439,249.025 118.535,249.5 C 118.629,249.975 118.345,250.069 118.439,250.734 C 118.535,251.398 118.344,251.398 118.439,252.157 C 118.535,252.917 117.262,253.885 117.262,253.885 C 117.262,253.885 117.3,253.201 116.447,252.632 C 115.593,252.063 116.067,251.968 115.687,251.019 C 115.308,250.07 115.592,249.5 115.592,248.552 C 115.592,247.694 115.589,247.069 115.38,246.396 C 114.655,249.153 113.807,251.563 112.878,253.012 C 110.505,256.713 108.918,258.1 106.709,256.162 C 106.446,255.932 106.2,255.655 105.968,255.351 C 106.193,256.604 106.484,261.969 106.558,263.45 C 106.634,264.969 107.242,266.563 107.089,267.474 C 106.936,268.385 107.165,268.993 106.026,269.371 C 104.887,269.751 100.483,269.751 97.902,269.827 C 95.321,269.902 91.155,269.902 90.538,269.95 C 89.921,269.998 89.589,269.855 89.352,269.713 C 89.115,269.571 88.877,269.238 88.877,269.238 C 88.877,269.238 88.687,269.381 88.64,269.57 C 88.593,269.76 88.355,269.998 88.355,269.998 C 88.355,269.998 88.118,269.523 88.166,269.144 C 88.213,268.764 88.023,267.911 87.929,267.388 C 87.834,266.867 88.071,266.772 88.356,266.44 C 88.641,266.107 88.541,264.684 88.499,263.166 C 88.451,261.458 88.546,259.038 88.499,256.997 C 88.451,254.957 89.21,254.862 89.638,254.15 C 90.066,253.438 91.006,253.158 91.006,253.158 C 91.006,253.158 90.997,252.964 91.045,252.679 C 91.092,252.394 91.075,251.794 91.027,250.988 C 90.979,250.182 91.021,248.971 91.021,248.971 C 91.021,248.971 89.756,248.582 89.25,248.193 C 88.942,247.956 89.069,247.697 89.306,247.365 C 89.543,247.033 90.492,246.25 91.157,245.87 C 91.821,245.491 92.248,245.562 92.248,245.562 C 92.248,245.562 92.326,244.815 92.368,244.151 C 91.947,244.242 91.567,244.35 91.06,244.315 C 90.032,244.243 90.375,243.508 91.046,242.983 C 91.543,242.594 91.894,242.383 92.328,242.187 C 92.291,241.854 92.237,241.444 92.153,240.817 C 92.099,240.414 92.066,240.129 92.044,239.917 L 92.044,239.917 C 92.039,239.864 92.034,239.817 92.03,239.773 C 92.027,239.734 92.023,239.699 92.021,239.667 C 92.019,239.639 92.017,239.612 92.015,239.588 C 92.014,239.567 92.012,239.545 92.011,239.527 C 92.009,239.495 92.008,239.468 92.008,239.447 C 90.975,238.643 89.842,236.856 88.928,235.36 C 87.884,233.652 76.686,214.293 75.642,213.058 C 74.598,211.825 52.012,183.544 44.8,173.865 C 37.588,164.185 16.899,138.182 7.219,112.75 C -2.461,87.317 -0.753,73.841 2.854,61.884 C 6.457,49.927 14.049,37.78 25.816,31.706 C 28.094,27.72 30.141,19.691 46.504,11.018 C 65.484,0.958 80.478,9.879 80.478,9.879 C 80.478,9.879 87.311,0.389 101.166,0.009 C 115.021,-0.371 123.183,10.258 123.183,10.258 C 123.183,10.258 140.885,4.105 157.347,14.813 C 176.897,27.53 179.743,42.524 179.743,42.524 C 179.743,42.524 194.927,55.24 196.065,77.257 C 197.203,99.274 188.665,118.824 182.97,128.883 z M 88.933,268.256 C 88.933,268.256 88.861,268.457 88.904,268.587 C 88.947,268.717 88.947,269.048 88.947,269.048 C 88.947,269.048 89.048,268.918 89.062,268.717 C 89.077,268.515 88.933,268.256 88.933,268.256 z M 92.167,246.44 C 91.914,246.503 91.321,246.874 91.131,247.031 C 90.965,247.169 90.948,247.198 90.859,247.307 C 90.846,247.323 90.835,247.342 90.835,247.342 C 90.835,247.342 90.877,247.351 90.897,247.397 C 90.911,247.429 90.902,247.452 90.902,247.452 C 90.902,247.452 90.958,247.477 91.029,247.497 C 91.437,247.605 92.239,247.746 92.239,247.746 C 92.239,247.746 92.42,246.377 92.167,246.44 z M 82.849,215.03 C 81.049,214.347 78.815,214.161 78.815,214.161 C 78.815,214.161 80.242,215.341 82.415,216.023 C 84.588,216.705 87.008,216.83 87.008,216.83 C 87.008,216.83 84.648,215.712 82.849,215.03 z M 103.216,253.202 C 103.216,253.202 104.026,252.987 104.645,253.056 C 104.033,251.711 103.555,250.26 103.159,249.121 C 103.074,248.874 102.997,248.634 102.929,248.401 C 102.989,250.348 103.216,253.202 103.216,253.202 z M 102.913,247.583 C 102.913,247.584 102.913,247.586 102.913,247.587 C 103.368,249.183 104.063,251.317 104.95,253.121 C 104.954,253.123 104.959,253.124 104.963,253.125 C 105.452,253.309 105.646,253.89 105.821,254.662 C 106.616,255.867 107.52,256.693 108.512,256.693 C 111.234,256.693 113.729,251.211 115.237,245.855 C 115.209,245.499 115.364,245.195 115.527,244.784 C 115.643,244.333 115.753,243.887 115.853,243.446 C 115.989,242.529 116.026,241.803 115.782,241.149 C 115.566,240.575 114.864,239.569 114.534,239.111 C 114.386,239.361 114.234,239.601 114.073,239.82 C 110.657,244.47 108.189,245.382 105.721,245.002 C 104.428,244.803 103.503,244.328 102.912,243.921 C 102.913,244.837 102.913,246.108 102.913,247.583 z M 102.791,242.512 C 103.162,242.442 103.675,242.316 104.132,242.105 C 104.954,241.725 104.556,241.162 103.672,240.962 C 103.419,240.905 103.088,240.875 102.802,240.839 C 102.789,240.887 102.775,240.929 102.761,240.979 C 102.584,241.638 102.694,242.132 102.791,242.512 z M 101.85,241.662 C 102.001,241.131 101.698,241.207 101.698,240.372 C 101.698,240.099 101.681,239.87 101.659,239.681 L 100.471,239.71 L 100.471,241.688 C 100.471,241.688 100.478,242.368 100.469,242.698 C 100.467,242.763 100.614,242.774 100.783,242.764 C 101.028,242.75 101.25,242.776 101.543,242.738 C 101.636,242.448 101.757,241.985 101.85,241.662 z M 98.929,245.147 C 99.262,245.248 99.512,245.574 99.53,246.098 C 99.542,246.473 99.413,247.017 99.229,247.314 C 99.118,247.496 99.119,247.607 99.14,247.726 C 99.161,247.844 99.227,247.968 99.28,248.012 C 99.335,248.055 99.437,248.119 99.437,248.119 L 99.481,248.082 C 99.481,248.082 99.643,248.136 99.832,248.319 C 100.021,248.502 100.536,249.204 100.597,249.656 C 100.927,252.111 101.406,253.13 101.516,253.539 C 101.516,251.207 101.365,245.809 101.365,245.613 C 101.365,245.584 101.345,245.557 101.314,245.533 C 101.316,245.481 101.317,245.431 101.32,245.382 C 101.395,243.636 101.244,243.484 101.395,243.105 C 101.429,243.021 101.462,242.927 101.496,242.83 C 100.723,242.887 99.812,242.827 99.207,242.827 C 99.123,242.827 99.049,242.826 98.977,242.824 C 98.965,242.98 98.952,243.139 98.938,243.285 C 98.898,243.706 98.936,244.748 98.929,245.147 z M 95.973,254.083 C 95.985,254.193 96.01,254.268 96.01,254.268 L 96.034,254.349 L 97.525,254.315 L 97.525,251.795 C 97.388,251.977 97.261,252.145 97.183,252.243 C 96.985,252.49 96.775,252.885 96.59,253.02 C 96.405,253.155 96.121,253.49 96.121,253.49 L 95.874,253.7 C 95.874,253.701 95.96,253.972 95.973,254.083 z M 93.6,245.122 C 93.819,245.108 94.034,245.114 94.198,245.16 C 94.738,245.311 94.954,245.506 95.084,245.981 C 95.214,246.457 95.278,246.781 95.127,247.061 C 94.976,247.342 94.738,247.472 94.673,247.688 C 94.608,247.904 94.651,248.12 94.651,248.12 L 94.91,248.141 L 95.104,248.487 L 95.018,248.574 C 95.018,248.574 95.169,248.66 95.32,249.05 C 95.471,249.439 95.622,249.784 95.666,250.195 C 95.709,250.606 95.817,250.995 95.839,251.319 C 95.861,251.643 95.925,252.075 95.925,252.075 C 95.925,252.075 96.292,251.665 96.487,251.341 C 96.682,251.017 96.79,250.693 96.941,250.477 C 97.079,250.28 97.361,249.92 97.524,249.628 L 97.524,247.973 C 97.381,247.987 97.159,247.996 97.081,247.959 C 96.989,247.916 96.952,247.852 96.957,247.771 C 96.962,247.69 96.995,247.69 96.989,247.625 C 96.984,247.561 96.924,247.544 96.913,247.507 C 96.902,247.469 96.956,247.458 96.956,247.458 C 96.956,247.458 96.896,247.431 96.896,247.398 C 96.896,247.365 96.934,247.36 96.934,247.312 C 96.934,247.263 96.88,247.184 96.826,247.184 C 96.772,247.184 96.628,247.119 96.666,247.06 C 96.704,247 96.791,246.845 96.848,246.749 C 96.912,246.64 97.016,246.561 96.957,246.485 C 96.874,246.381 96.867,246.17 96.859,246.086 C 96.851,246 96.851,245.973 96.846,245.91 C 96.831,245.912 96.804,245.911 96.787,245.912 C 96.787,245.913 96.787,245.913 96.787,245.913 C 96.789,245.965 96.796,245.997 96.804,246.017 C 96.793,245.998 96.78,245.972 96.775,245.941 C 96.754,245.988 96.742,246.044 96.757,246.097 C 96.772,246.153 96.787,246.183 96.799,246.201 C 96.759,246.159 96.7,246.065 96.772,245.919 C 96.772,245.917 96.772,245.915 96.772,245.913 C 96.742,245.915 96.712,245.917 96.686,245.917 C 96.684,245.93 96.682,245.942 96.682,245.956 C 96.682,246.057 96.695,246.107 96.704,246.131 C 96.686,246.095 96.654,246.011 96.675,245.918 C 96.641,245.919 96.616,245.919 96.616,245.919 C 96.616,245.919 96.641,245.918 96.676,245.916 C 96.684,245.884 96.697,245.852 96.72,245.819 C 96.72,245.739 96.752,245.635 96.915,245.574 C 96.927,245.569 96.937,245.565 96.948,245.562 C 96.961,245.531 96.983,245.499 97.022,245.472 C 97.008,245.472 96.995,245.472 96.98,245.473 C 97.003,245.46 97.019,245.453 97.027,245.451 C 97.028,245.45 97.029,245.45 97.03,245.45 C 97.038,245.448 97.037,245.447 97.027,245.451 C 97.025,245.451 97.024,245.451 97.022,245.452 C 97.079,245.427 97.115,245.417 97.117,245.414 C 97.114,245.413 97.126,245.416 97.145,245.422 C 97.153,245.42 97.161,245.418 97.17,245.416 C 97.171,245.416 97.172,245.416 97.173,245.415 C 97.169,245.419 97.164,245.422 97.158,245.426 C 97.155,245.425 97.153,245.425 97.158,245.427 C 97.158,245.427 97.158,245.427 97.158,245.426 C 97.161,245.427 97.164,245.429 97.166,245.43 L 97.166,245.43 C 97.169,245.431 97.168,245.43 97.166,245.43 C 97.196,245.424 97.188,245.409 97.187,245.405 C 97.187,245.406 97.187,245.406 97.187,245.406 C 97.186,245.407 97.184,245.408 97.182,245.409 C 97.186,245.401 97.18,245.389 97.194,245.387 C 97.194,245.372 97.242,245.357 97.24,245.342 C 97.169,245.337 97.069,245.403 96.984,245.373 C 96.912,245.348 96.845,245.327 96.825,245.262 C 96.871,245.342 97.05,245.41 97.299,245.301 C 97.303,245.299 97.307,245.299 97.312,245.298 C 97.309,245.262 97.523,245.235 97.524,245.2 C 97.529,244.824 97.595,244.039 97.56,243.572 C 97.539,243.311 97.537,243.131 97.539,243.005 C 97.136,243.131 96.917,243.082 96.293,243.082 C 95.597,243.082 95.735,242.892 95.103,242.829 C 94.47,242.766 94.648,242.26 94.648,242.26 C 94.648,242.26 94.703,241.858 94.747,241.646 C 94.754,241.61 94.417,241.647 94.048,241.69 C 93.96,241.701 93.87,241.722 93.781,241.742 L 93.621,242.672 L 93.658,244.533 L 93.585,244.522 L 93.6,245.122 z M 97.151,245.482 C 97.12,245.478 97.085,245.473 97.045,245.471 C 97.013,245.491 96.984,245.517 96.968,245.554 C 96.971,245.552 96.975,245.551 96.978,245.55 C 96.981,245.542 96.983,245.534 96.988,245.527 C 96.991,245.528 97.019,245.53 97.054,245.544 C 97.066,245.537 97.075,245.515 97.085,245.509 C 97.085,245.502 97.085,245.496 97.103,245.49 C 97.113,245.481 97.142,245.49 97.151,245.482 z M 96.967,245.595 C 96.963,245.595 96.957,245.596 96.952,245.596 C 96.951,245.602 96.95,245.606 96.948,245.611 C 96.955,245.606 96.96,245.6 96.967,245.595 L 96.967,245.595 z M 96.721,245.84 C 96.705,245.861 96.694,245.885 96.687,245.913 C 96.713,245.912 96.744,245.91 96.773,245.907 C 96.773,245.863 96.787,245.812 96.832,245.757 C 96.802,245.77 96.759,245.793 96.727,245.833 C 96.725,245.867 96.729,245.887 96.732,245.902 C 96.728,245.887 96.723,245.866 96.721,245.84 z M 96.854,245.818 C 96.854,245.817 96.854,245.817 96.854,245.816 C 96.851,245.82 96.819,245.856 96.791,245.907 C 96.808,245.905 96.837,245.904 96.851,245.902 C 96.858,245.858 96.853,245.826 96.854,245.818 z M 96.812,245.852 C 96.827,245.831 96.839,245.814 96.85,245.797 C 96.847,245.785 96.845,245.774 96.843,245.763 C 96.814,245.798 96.791,245.842 96.789,245.89 C 96.795,245.877 96.803,245.865 96.812,245.852 z M 96.791,245.745 C 96.81,245.73 96.826,245.719 96.841,245.708 C 96.841,245.705 96.857,245.701 96.877,245.696 C 96.889,245.672 96.907,245.646 96.935,245.622 C 96.935,245.615 96.936,245.607 96.937,245.6 C 96.871,245.611 96.771,245.645 96.743,245.748 C 96.737,245.769 96.733,245.787 96.731,245.804 C 96.747,245.783 96.766,245.763 96.791,245.745 z M 94.776,240.928 L 94.776,240.232 L 94.722,239.852 L 94.112,239.867 L 94.097,239.916 L 93.8,241.659 L 94.742,241.518 L 94.776,240.928 z M 91.122,242.999 C 90.489,243.505 90.164,244.124 90.949,244.25 C 91.318,244.31 91.95,244.191 92.362,244.081 C 92.378,243.808 92.389,243.543 92.389,243.333 C 92.389,242.95 92.377,242.617 92.341,242.258 C 91.761,242.546 91.423,242.757 91.122,242.999 z M 97.13,216.497 C 94.051,216.424 89.783,217.014 89.783,217.014 C 89.783,217.014 94.663,217.662 96.978,217.598 C 99.294,217.534 104.127,216.95 104.127,216.95 C 104.127,216.95 99.833,216.561 97.13,216.497 z M 111.981,215.659 C 109.987,216.045 107.087,216.757 107.087,216.757 C 107.087,216.757 110.17,216.828 112.164,216.378 C 114.158,215.927 116.482,215.018 116.482,215.018 C 116.482,215.018 113.975,215.272 111.981,215.659 z M 112.174,226.25 C 107.578,233.146 103.807,238.885 103.311,239.639 L 103.248,239.641 C 103.112,239.952 102.934,240.356 102.808,240.762 C 103.032,240.795 103.451,240.852 103.798,240.951 C 104.511,241.153 104.722,241.48 104.615,241.75 C 104.47,242.117 103.755,242.375 102.812,242.6 C 102.866,242.814 102.913,243.041 102.913,243.332 C 102.913,243.449 102.913,243.578 102.913,243.715 C 104.116,244.362 106.483,245.337 108.569,244.395 C 111.264,243.178 113.542,240.431 114.782,237.644 L 115.901,234.394 C 116.661,231.601 117.295,227.601 117.907,219.797 C 118.008,218.518 118.107,217.093 118.192,215.81 C 117.142,218 115.382,221.439 112.174,226.25 z M 118.481,215.205 C 118.465,216.553 118.408,218.137 118.249,219.607 C 117.988,222.018 117.728,228.454 116.484,233.757 C 116.559,234.038 116.275,234.11 116.446,234.791 C 116.635,235.55 116.35,235.36 116.635,236.594 C 116.913,237.801 116.559,237.105 116.809,237.606 C 117.571,231.065 118.561,218.996 118.943,214.226 C 118.809,214.507 118.657,214.833 118.481,215.205 z M 96.8,246.2 C 96.816,246.217 96.828,246.225 96.828,246.225 C 96.828,246.225 96.817,246.226 96.8,246.2 z M 96.704,246.129 C 96.71,246.142 96.715,246.15 96.715,246.15 C 96.715,246.15 96.71,246.145 96.704,246.129 z M 96.976,245.473 C 96.977,245.473 96.979,245.473 96.98,245.472 C 96.927,245.503 96.831,245.57 96.679,245.707 C 96.786,245.587 96.894,245.516 96.976,245.473 z M 96.883,245.497 C 96.809,245.528 96.788,245.519 96.73,245.609 C 96.755,245.552 96.754,245.506 97.022,245.451 C 97.008,245.457 96.993,245.465 96.976,245.473 C 96.946,245.476 96.915,245.483 96.883,245.497 z M 97.174,245.414 C 97.178,245.411 97.181,245.409 97.184,245.407 C 97.182,245.41 97.179,245.413 97.174,245.414 z "
   id="path2213" />
		</g>
	</svg>