<?xml version="1.0" encoding="utf-8"?>
<!-- Generator: Adobe Illustrator 17.0.0, SVG Export Plug-In . SVG Version: 6.00 Build 0)  -->
<!DOCTYPE svg PUBLIC "-//W3C//DTD SVG 1.1//EN" "http://www.w3.org/Graphics/SVG/1.1/DTD/svg11.dtd">
<svg version="1.1" id="Layer_1" xmlns="http://www.w3.org/2000/svg" xmlns:xlink="http://www.w3.org/1999/xlink" x="0px" y="0px"
	 width="198.208px" height="360.965px" viewBox="0 0 198.208 360.965" enable-background="new 0 0 198.208 360.965"
	 xml:space="preserve">
<g>
	<path fill="#B8C893" d="M60.935,56.179c4.287,0,7.762-3.476,7.762-7.762c0-4.287-3.475-7.762-7.762-7.762
		c-4.287,0-7.761,3.475-7.761,7.762C53.173,52.703,56.648,56.179,60.935,56.179"/>
	<path fill="#B8C893" d="M51.442,48.416c0.002-5.243,4.248-9.489,9.492-9.492l0,0c5.243,0.002,9.492,4.249,9.492,9.492l0,0
		c0,5.244-4.249,9.49-9.492,9.492l0,0v-1.729v-1.73c3.331-0.005,6.027-2.701,6.033-6.033l0,0c-0.006-3.331-2.701-6.027-6.033-6.032
		l0,0c-3.332,0.006-6.026,2.701-6.031,6.032l0,0c0.005,3.331,2.699,6.027,6.031,6.033l0,0v1.73v1.729
		C55.691,57.906,51.444,53.66,51.442,48.416L51.442,48.416z"/>
	<path fill="#B8C893" d="M91.138,84.08c4.287,0,7.762-3.475,7.762-7.762c0-4.287-3.474-7.762-7.762-7.762
		c-4.287,0-7.761,3.475-7.761,7.762C83.376,80.605,86.85,84.08,91.138,84.08"/>
	<path fill="#B8C893" d="M81.646,76.318c0.002-5.242,4.247-9.492,9.492-9.493l0,0c5.242,0.002,9.489,4.251,9.491,9.493l0,0
		c-0.002,5.242-4.249,9.49-9.491,9.491l0,0v-1.73v-1.73c3.33-0.006,6.026-2.701,6.031-6.031l0,0
		c-0.005-3.332-2.701-6.028-6.031-6.033l0,0c-3.332,0.006-6.026,2.701-6.032,6.033l0,0c0.006,3.33,2.699,6.026,6.032,6.031l0,0v1.73
		v1.73C85.893,85.808,81.648,81.561,81.646,76.318L81.646,76.318z"/>
	<path fill="#B8C893" d="M118.463,108.674c4.287,0,7.762-3.476,7.762-7.762c0-4.287-3.474-7.762-7.762-7.762
		c-4.287,0-7.762,3.475-7.762,7.762C110.702,105.198,114.177,108.674,118.463,108.674"/>
	<path fill="#B8C893" d="M108.971,100.911c0.002-5.243,4.25-9.489,9.491-9.491l0,0c5.243,0.002,9.49,4.25,9.49,9.491l0,0
		c0,5.243-4.246,9.491-9.49,9.493l0,0v-1.731v-1.729c3.331-0.006,6.027-2.701,6.033-6.033l0,0c-0.006-3.331-2.699-6.026-6.033-6.031
		l0,0c-3.33,0.005-6.026,2.7-6.031,6.031l0,0c0.005,3.331,2.701,6.027,6.031,6.033l0,0v1.729v1.731
		C113.221,110.402,108.973,106.154,108.971,100.911L108.971,100.911z"/>
	<path fill="#B8C893" d="M142.914,131.446c4.286,0,7.761-3.476,7.761-7.762c0-4.287-3.475-7.762-7.761-7.762
		c-4.288,0-7.762,3.475-7.762,7.762C135.152,127.97,138.625,131.446,142.914,131.446"/>
	<path fill="#B8C893" d="M133.422,123.683c0-5.242,4.248-9.491,9.492-9.491l0,0c5.242,0,9.489,4.249,9.49,9.491l0,0
		c-0.001,5.243-4.248,9.49-9.49,9.493l0,0v-1.729v-1.731c3.329-0.005,6.025-2.701,6.03-6.032l0,0
		c-0.005-3.331-2.701-6.027-6.03-6.032l0,0c-3.334,0.006-6.027,2.701-6.034,6.032l0,0c0.007,3.331,2.7,6.027,6.034,6.032l0,0v1.731
		v1.729C137.668,133.173,133.422,128.924,133.422,123.683L133.422,123.683z"/>
	<path fill="#B8C893" d="M60.935,35.534c3.675,0,6.653-2.978,6.653-6.653c0-3.675-2.979-6.653-6.653-6.653
		c-3.675,0-6.653,2.978-6.653,6.653C54.282,32.556,57.26,35.534,60.935,35.534"/>
	<path fill="#B8C893" d="M52.799,28.881c0-4.495,3.642-8.135,8.135-8.137l0,0c4.493,0.002,8.135,3.642,8.137,8.137l0,0
		c-0.002,4.493-3.643,8.133-8.137,8.135l0,0v-1.483v-1.482c2.856-0.006,5.166-2.314,5.172-5.17l0,0
		c-0.005-2.856-2.316-5.166-5.172-5.172l0,0c-2.856,0.006-5.165,2.316-5.17,5.172l0,0c0.005,2.856,2.314,5.164,5.17,5.17l0,0v1.482
		v1.483C56.44,37.016,52.799,33.374,52.799,28.881L52.799,28.881z"/>
	<path fill="#B8C893" d="M91.138,63.435c3.675,0,6.654-2.978,6.654-6.653c0-3.675-2.979-6.653-6.654-6.653
		c-3.675,0-6.653,2.978-6.653,6.653C84.485,60.457,87.463,63.435,91.138,63.435"/>
	<path fill="#B8C893" d="M83.002,56.782c0-4.493,3.642-8.135,8.136-8.135l0,0c4.492,0,8.133,3.64,8.135,8.135l0,0
		c-0.002,4.493-3.643,8.135-8.135,8.135l0,0v-1.481v-1.483c2.855-0.006,5.165-2.316,5.171-5.171l0,0
		c-0.005-2.856-2.316-5.165-5.171-5.171l0,0c-2.856,0.006-5.167,2.314-5.172,5.171l0,0c0.005,2.856,2.316,5.165,5.172,5.171l0,0
		v1.483v1.481C86.643,64.917,83.002,61.275,83.002,56.782L83.002,56.782z"/>
	<path fill="#B8C893" d="M118.463,88.028c3.675,0,6.654-2.978,6.654-6.653c0-3.674-2.979-6.653-6.654-6.653
		c-3.675,0-6.652,2.979-6.652,6.653C111.811,85.05,114.789,88.028,118.463,88.028"/>
	<path fill="#B8C893" d="M110.329,81.374c0-4.493,3.64-8.133,8.135-8.135l0,0c4.494,0.002,8.133,3.642,8.135,8.135l0,0
		c-0.001,4.495-3.644,8.135-8.135,8.135l0,0v-1.481v-1.483c2.855-0.005,5.166-2.315,5.171-5.171l0,0
		c-0.005-2.854-2.317-5.165-5.171-5.169l0,0c-2.855,0.004-5.166,2.314-5.171,5.169l0,0c0.005,2.856,2.314,5.166,5.171,5.171l0,0
		v1.483v1.481C113.969,89.51,110.329,85.87,110.329,81.374L110.329,81.374z"/>
	<path fill="#B8C893" d="M142.914,110.8c3.675,0,6.652-2.978,6.652-6.653c0-3.675-2.978-6.653-6.652-6.653
		c-3.675,0-6.654,2.978-6.654,6.653C136.26,107.822,139.239,110.8,142.914,110.8"/>
	<path fill="#B8C893" d="M134.776,104.148c0.001-4.495,3.642-8.136,8.137-8.136l0,0c4.493,0,8.134,3.641,8.134,8.136l0,0
		c0,4.493-3.641,8.134-8.134,8.134l0,0v-1.482v-1.482c2.854-0.006,5.165-2.314,5.17-5.17l0,0c-0.005-2.857-2.316-5.166-5.17-5.171
		l0,0c-2.857,0.006-5.168,2.316-5.173,5.171l0,0c0.005,2.854,2.315,5.164,5.173,5.17l0,0v1.482v1.482
		C138.418,112.281,134.778,108.641,134.776,104.148L134.776,104.148z"/>
	<path fill="#B8C893" d="M60.935,17.6c3.062,0,5.545-2.482,5.545-5.544c0-3.062-2.482-5.545-5.545-5.545
		c-3.062,0-5.544,2.482-5.544,5.545C55.391,15.118,57.873,17.6,60.935,17.6"/>
	<path fill="#B8C893" d="M54.154,12.055c0.002-3.744,3.036-6.779,6.78-6.779l0,0c3.745,0,6.779,3.035,6.779,6.779l0,0
		c0,3.744-3.034,6.779-6.779,6.78l0,0V17.6v-1.235c2.38-0.006,4.304-1.93,4.31-4.31l0,0c-0.006-2.38-1.93-4.304-4.31-4.31l0,0
		c-2.38,0.006-4.304,1.93-4.31,4.31l0,0c0.006,2.38,1.93,4.304,4.31,4.31l0,0V17.6v1.236C57.19,18.834,54.156,15.799,54.154,12.055
		L54.154,12.055z"/>
	<path fill="#B8C893" d="M91.138,45.502c3.062,0,5.545-2.482,5.545-5.544c0-3.062-2.482-5.545-5.545-5.545
		c-3.062,0-5.545,2.482-5.545,5.545C85.593,43.019,88.075,45.502,91.138,45.502"/>
	<path fill="#B8C893" d="M84.357,39.956c0.002-3.745,3.036-6.779,6.78-6.779l0,0c3.744,0,6.778,3.034,6.781,6.779l0,0
		c-0.003,3.745-3.036,6.779-6.781,6.781l0,0v-1.236v-1.234c2.379-0.006,4.305-1.93,4.308-4.311l0,0
		c-0.004-2.379-1.929-4.305-4.308-4.309l0,0c-2.379,0.004-4.305,1.93-4.309,4.309l0,0c0.003,2.381,1.93,4.305,4.309,4.311l0,0v1.234
		v1.236C87.393,46.735,84.359,43.701,84.357,39.956L84.357,39.956z"/>
	<path fill="#B8C893" d="M118.463,70.095c3.062,0,5.544-2.483,5.544-5.545c0-3.062-2.482-5.545-5.544-5.545
		c-3.062,0-5.544,2.482-5.544,5.545C112.919,67.613,115.401,70.095,118.463,70.095"/>
	<path fill="#B8C893" d="M111.682,64.551c0.002-3.745,3.035-6.779,6.78-6.781l0,0c3.745,0.002,6.779,3.036,6.781,6.781l0,0
		c-0.001,3.744-3.035,6.778-6.781,6.778l0,0v-1.234v-1.235c2.38-0.004,4.305-1.93,4.309-4.308l0,0
		c-0.004-2.38-1.929-4.306-4.309-4.31l0,0c-2.379,0.004-4.305,1.93-4.308,4.31l0,0c0.003,2.379,1.929,4.304,4.308,4.308l0,0v1.235
		v1.234C114.717,71.329,111.684,68.295,111.682,64.551L111.682,64.551z"/>
	<path fill="#B8C893" d="M142.914,92.867c3.062,0,5.544-2.482,5.544-5.544c0-3.062-2.483-5.544-5.544-5.544
		c-3.062,0-5.545,2.481-5.545,5.544C137.369,90.385,139.851,92.867,142.914,92.867"/>
	<path fill="#B8C893" d="M136.132,87.323c0.002-3.747,3.037-6.78,6.782-6.78l0,0c3.743,0,6.777,3.033,6.779,6.78l0,0
		c-0.002,3.743-3.035,6.778-6.779,6.779l0,0v-1.235v-1.236c2.379-0.006,4.303-1.93,4.307-4.309l0,0
		c-0.004-2.38-1.928-4.305-4.307-4.309l0,0c-2.381,0.004-4.305,1.929-4.312,4.309l0,0c0.007,2.379,1.931,4.303,4.312,4.309l0,0
		v1.236v1.235C139.168,94.101,136.134,91.068,136.132,87.323L136.132,87.323z"/>
	<path fill="#B8C893" d="M60.935,79.536c4.9,0,8.871-3.971,8.871-8.871c0-4.899-3.971-8.871-8.871-8.871
		c-4.9,0-8.871,3.972-8.871,8.871C52.064,75.564,56.035,79.536,60.935,79.536"/>
	<path fill="#B8C893" d="M50.087,70.665c0.002-5.993,4.855-10.847,10.848-10.849l0,0c5.991,0.002,10.847,4.856,10.847,10.849l0,0
		c0,5.991-4.856,10.845-10.847,10.847l0,0v-1.977v-1.977c3.807-0.008,6.888-3.087,6.894-6.893l0,0
		c-0.006-3.807-3.086-6.888-6.894-6.895l0,0c-3.807,0.007-6.888,3.088-6.895,6.895l0,0c0.007,3.807,3.088,6.886,6.895,6.893l0,0
		v1.977v1.977C54.942,81.51,50.088,76.656,50.087,70.665L50.087,70.665z"/>
	<path fill="#9B1B4F" d="M91.138,107.437c4.9,0,8.871-3.972,8.871-8.871c0-4.898-3.972-8.871-8.871-8.871s-8.871,3.972-8.871,8.871
		C82.266,103.465,86.238,107.437,91.138,107.437"/>
	<path fill="#9B1B4F" d="M80.29,98.567c0.002-5.992,4.855-10.847,10.848-10.849l0,0c5.992,0.002,10.845,4.857,10.847,10.849l0,0
		c-0.002,5.992-4.856,10.845-10.847,10.847l0,0v-1.976v-1.977c3.806-0.008,6.887-3.088,6.894-6.894l0,0
		c-0.007-3.806-3.087-6.888-6.894-6.896l0,0c-3.808,0.007-6.888,3.09-6.896,6.896l0,0c0.008,3.806,3.088,6.886,6.896,6.894l0,0
		v1.977v1.976C85.145,109.412,80.291,104.558,80.29,98.567L80.29,98.567z"/>
	<path fill="#B8C893" d="M118.463,132.03c4.9,0,8.871-3.972,8.871-8.871c0-4.898-3.971-8.871-8.871-8.871s-8.87,3.973-8.87,8.871
		C109.593,128.059,113.564,132.03,118.463,132.03"/>
	<path fill="#B8C893" d="M107.614,123.159c0.002-5.991,4.857-10.846,10.848-10.848l0,0c5.993,0.002,10.848,4.856,10.849,10.848l0,0
		c-0.001,5.992-4.856,10.848-10.849,10.848l0,0v-1.975v-1.977c3.807-0.008,6.889-3.088,6.896-6.895l0,0
		c-0.007-3.805-3.089-6.887-6.896-6.893l0,0c-3.807,0.006-6.888,3.088-6.894,6.893l0,0c0.006,3.807,3.087,6.888,6.894,6.895l0,0
		v1.977v1.975C112.471,134.006,107.616,129.15,107.614,123.159L107.614,123.159z"/>
	<path fill="#B8C893" d="M60.935,105.605c5.512,0,9.98-4.469,9.98-9.98c0-5.512-4.468-9.98-9.98-9.98c-5.512,0-9.98,4.467-9.98,9.98
		C50.955,101.137,55.423,105.605,60.935,105.605"/>
	<path fill="#B8C893" d="M48.731,95.624c0.002-6.741,5.463-12.201,12.203-12.202l0,0c6.741,0.002,12.203,5.461,12.203,12.202l0,0
		c0,6.741-5.462,12.203-12.203,12.205l0,0v-2.223v-2.224c4.284-0.008,7.749-3.473,7.757-7.757l0,0
		c-0.008-4.283-3.473-7.749-7.757-7.756l0,0c-4.283,0.007-7.749,3.473-7.756,7.756l0,0c0.007,4.284,3.473,7.75,7.756,7.757l0,0
		v2.224v2.223C54.193,107.827,48.734,102.365,48.731,95.624L48.731,95.624z"/>
	<path fill="#B8C893" d="M91.138,133.506c5.512,0,9.98-4.469,9.98-9.979c0-5.513-4.468-9.98-9.98-9.98
		c-5.512,0-9.98,4.468-9.98,9.98C81.158,129.038,85.625,133.506,91.138,133.506"/>
	<path fill="#B8C893" d="M78.934,123.527c0.002-6.741,5.461-12.203,12.202-12.204l0,0c6.741,0.002,12.203,5.464,12.204,12.204l0,0
		c-0.001,6.739-5.463,12.201-12.204,12.202l0,0v-2.223v-2.225c4.282-0.007,7.749-3.474,7.756-7.755l0,0
		c-0.007-4.284-3.472-7.749-7.756-7.757l0,0c-4.284,0.007-7.747,3.473-7.755,7.757l0,0c0.008,4.282,3.473,7.748,7.755,7.755l0,0
		v2.225v2.223C84.396,135.728,78.936,130.266,78.934,123.527L78.934,123.527z"/>
	<path fill="#B8C893" d="M60.935,134.385c6.125,0,11.089-4.964,11.089-11.089c0-6.124-4.964-11.088-11.089-11.088
		c-6.124,0-11.089,4.964-11.089,11.088C49.846,129.421,54.81,134.385,60.935,134.385"/>
	<path fill="#B8C893" d="M47.376,123.297c0-7.49,6.069-13.557,13.559-13.559l0,0c7.49,0.002,13.557,6.069,13.559,13.559l0,0
		c-0.002,7.489-6.069,13.557-13.559,13.559l0,0v-2.469v-2.472c4.76-0.009,8.609-3.859,8.618-8.618l0,0
		c-0.009-4.76-3.858-8.609-8.618-8.618l0,0c-4.759,0.009-8.61,3.859-8.618,8.618l0,0c0.008,4.759,3.859,8.609,8.618,8.618l0,0v2.472
		v2.469C53.445,136.853,47.376,130.786,47.376,123.297L47.376,123.297z"/>
	<path fill="#B8C893" d="M140.865,307.216c-4.286,0-7.761,3.476-7.761,7.762c0,4.287,3.475,7.762,7.761,7.762
		c4.288,0,7.762-3.475,7.762-7.762C148.627,310.692,145.153,307.216,140.865,307.216"/>
	<path fill="#B8C893" d="M131.373,314.978c0-5.243,4.248-9.491,9.491-9.493l0,0v1.73v1.73c-3.329,0.006-6.026,2.702-6.032,6.034l0,0
		c0.007,3.331,2.703,6.025,6.032,6.033l0,0c3.332-0.008,6.027-2.702,6.033-6.033l0,0c-0.006-3.331-2.701-6.028-6.033-6.034l0,0
		v-1.73v-1.73c5.243,0.002,9.491,4.25,9.491,9.493l0,0c0,5.242-4.248,9.489-9.491,9.491l0,0
		C135.621,324.467,131.373,320.22,131.373,314.978L131.373,314.978z"/>
	<path fill="#B8C893" d="M110.662,279.315c-4.286,0-7.761,3.475-7.761,7.761c0,4.288,3.475,7.763,7.761,7.763
		c4.288,0,7.762-3.475,7.762-7.763C118.424,282.79,114.95,279.315,110.662,279.315"/>
	<path fill="#B8C893" d="M101.17,287.076c0.003-5.243,4.249-9.491,9.492-9.491l0,0v1.73v1.73c-3.331,0.007-6.027,2.702-6.032,6.032
		l0,0c0.005,3.333,2.701,6.027,6.032,6.034l0,0c3.331-0.007,6.026-2.701,6.031-6.034l0,0c-0.005-3.331-2.699-6.025-6.031-6.032l0,0
		v-1.73v-1.73c5.243,0,9.49,4.249,9.49,9.491l0,0c0,5.243-4.247,9.492-9.49,9.492l0,0
		C105.419,296.567,101.173,292.318,101.17,287.076L101.17,287.076z"/>
	<path fill="#B8C893" d="M83.336,254.721c-4.287,0-7.762,3.476-7.762,7.762c0,4.287,3.475,7.762,7.762,7.762
		c4.287,0,7.761-3.476,7.761-7.762C91.098,258.197,87.623,254.721,83.336,254.721"/>
	<path fill="#B8C893" d="M73.845,262.482c0-5.241,4.248-9.49,9.491-9.49l0,0v1.728v1.731c-3.331,0.005-6.026,2.702-6.032,6.031l0,0
		c0.006,3.332,2.7,6.026,6.032,6.034l0,0c3.331-0.008,6.026-2.702,6.032-6.034l0,0c-0.006-3.329-2.7-6.026-6.032-6.031l0,0v-1.731
		v-1.728c5.242,0,9.491,4.248,9.491,9.49l0,0c0,5.243-4.248,9.491-9.491,9.493l0,0C78.094,271.973,73.845,267.725,73.845,262.482
		L73.845,262.482z"/>
	<path fill="#B8C893" d="M58.887,231.95c-4.287,0-7.761,3.475-7.761,7.761c0,4.287,3.474,7.763,7.761,7.763
		c4.287,0,7.762-3.476,7.762-7.763C66.649,235.425,63.174,231.95,58.887,231.95"/>
	<path fill="#B8C893" d="M49.395,239.711c0.002-5.243,4.248-9.491,9.492-9.491l0,0v1.729v1.728
		c-3.332,0.008-6.026,2.701-6.032,6.034l0,0c0.005,3.331,2.699,6.027,6.032,6.032l0,0c3.331-0.005,6.026-2.701,6.032-6.032l0,0
		c-0.006-3.33-2.701-6.026-6.032-6.034l0,0v-1.728v-1.729c5.243,0,9.49,4.248,9.492,9.491l0,0c-0.002,5.242-4.249,9.491-9.492,9.492
		l0,0C53.643,249.202,49.397,244.953,49.395,239.711L49.395,239.711z"/>
	<path fill="#B8C893" d="M140.865,327.862c-3.675,0-6.652,2.978-6.652,6.653c0,3.675,2.976,6.653,6.652,6.653
		c3.675,0,6.654-2.978,6.654-6.653C147.519,330.84,144.54,327.862,140.865,327.862"/>
	<path fill="#B8C893" d="M132.73,334.515c0-4.495,3.64-8.136,8.134-8.136l0,0v1.482v1.482c-2.855,0.005-5.165,2.316-5.171,5.173l0,0
		c0.005,2.855,2.316,5.164,5.171,5.17l0,0c2.855-0.006,5.166-2.315,5.172-5.17l0,0c-0.006-2.857-2.317-5.167-5.172-5.173l0,0v-1.482
		v-1.482c4.493,0,8.135,3.641,8.136,8.136l0,0c-0.001,4.493-3.643,8.133-8.136,8.135l0,0
		C136.37,342.649,132.73,339.008,132.73,334.515L132.73,334.515z"/>
	<path fill="#B8C893" d="M110.662,299.96c-3.675,0-6.652,2.978-6.652,6.653c0,3.674,2.978,6.653,6.652,6.653
		c3.675,0,6.654-2.979,6.654-6.653C117.316,302.939,114.337,299.96,110.662,299.96"/>
	<path fill="#B8C893" d="M102.527,306.613c0-4.493,3.64-8.135,8.135-8.135l0,0v1.482v1.48c-2.855,0.007-5.167,2.316-5.17,5.173l0,0
		c0.003,2.855,2.315,5.164,5.17,5.171l0,0c2.855-0.007,5.166-2.317,5.17-5.171l0,0c-0.004-2.855-2.315-5.166-5.17-5.173l0,0v-1.48
		v-1.482c4.493,0,8.135,3.639,8.135,8.135l0,0c0,4.494-3.642,8.134-8.135,8.135l0,0
		C106.166,314.747,102.527,311.105,102.527,306.613L102.527,306.613z"/>
	<path fill="#B8C893" d="M83.336,275.366c-3.675,0-6.653,2.979-6.653,6.653c0,3.675,2.978,6.653,6.653,6.653
		c3.675,0,6.653-2.978,6.653-6.653C89.989,278.345,87.011,275.366,83.336,275.366"/>
	<path fill="#B8C893" d="M75.201,282.019c0-4.494,3.641-8.135,8.135-8.136l0,0v1.484v1.48c-2.855,0.006-5.165,2.317-5.17,5.172l0,0
		c0.005,2.854,2.315,5.165,5.17,5.171l0,0c2.855-0.006,5.165-2.315,5.17-5.171l0,0c-0.005-2.855-2.315-5.166-5.17-5.172l0,0v-1.48
		v-1.484c4.494,0.001,8.135,3.642,8.135,8.136l0,0c0,4.492-3.641,8.136-8.135,8.136l0,0
		C78.842,290.152,75.201,286.514,75.201,282.019L75.201,282.019z"/>
	<path fill="#B8C893" d="M58.887,252.595c-3.675,0-6.653,2.979-6.653,6.653c0,3.675,2.978,6.653,6.653,6.653
		c3.675,0,6.653-2.978,6.653-6.653C65.54,255.574,62.562,252.595,58.887,252.595"/>
	<path fill="#B8C893" d="M50.751,259.248c0.002-4.493,3.641-8.135,8.136-8.137l0,0v1.484v1.482
		c-2.856,0.005-5.166,2.316-5.171,5.171l0,0c0.006,2.855,2.315,5.164,5.171,5.169l0,0c2.854-0.005,5.164-2.315,5.17-5.169l0,0
		c-0.005-2.855-2.315-5.166-5.17-5.171l0,0v-1.482v-1.484c4.494,0.002,8.133,3.642,8.135,8.137l0,0
		c-0.002,4.494-3.642,8.133-8.135,8.135l0,0C54.393,267.382,50.752,263.74,50.751,259.248L50.751,259.248z"/>
	<path fill="#B8C893" d="M140.865,345.794c-3.062,0-5.544,2.483-5.544,5.545c0,3.062,2.482,5.544,5.544,5.544
		c3.063,0,5.545-2.482,5.545-5.544C146.41,348.277,143.928,345.794,140.865,345.794"/>
	<path fill="#B8C893" d="M134.085,351.339c0-3.746,3.033-6.779,6.779-6.781l0,0v1.236v1.235c-2.379,0.003-4.305,1.929-4.308,4.311
		l0,0c0.003,2.377,1.929,4.303,4.308,4.309l0,0c2.38-0.005,4.305-1.931,4.309-4.309l0,0c-0.005-2.381-1.929-4.307-4.309-4.311l0,0
		v-1.235v-1.236c3.745,0.002,6.779,3.035,6.779,6.781l0,0c0,3.744-3.035,6.777-6.779,6.779l0,0
		C137.118,358.117,134.085,355.083,134.085,351.339L134.085,351.339z"/>
	<path fill="#B8C893" d="M110.662,317.894c-3.062,0-5.544,2.482-5.544,5.544c0,3.062,2.483,5.545,5.544,5.545
		c3.063,0,5.545-2.483,5.545-5.545C116.207,320.376,113.725,317.894,110.662,317.894"/>
	<path fill="#B8C893" d="M103.881,323.437c0.001-3.745,3.035-6.779,6.781-6.779l0,0v1.235v1.236c-2.38,0.004-4.305,1.929-4.31,4.307
		l0,0c0.005,2.38,1.93,4.305,4.31,4.31l0,0c2.38-0.005,4.305-1.93,4.308-4.31l0,0c-0.003-2.378-1.928-4.303-4.308-4.307l0,0v-1.236
		v-1.235c3.743,0,6.779,3.033,6.779,6.779l0,0c0,3.745-3.036,6.779-6.779,6.781l0,0
		C106.917,330.216,103.883,327.182,103.881,323.437L103.881,323.437z"/>
	<path fill="#B8C893" d="M83.336,293.299c-3.062,0-5.545,2.483-5.545,5.545c0,3.062,2.482,5.544,5.545,5.544
		c3.062,0,5.544-2.483,5.544-5.544C88.881,295.782,86.398,293.299,83.336,293.299"/>
	<path fill="#B8C893" d="M76.556,298.844c0.002-3.745,3.035-6.78,6.78-6.782l0,0v1.236v1.235c-2.378,0.005-4.305,1.928-4.309,4.311
		l0,0c0.004,2.377,1.929,4.303,4.309,4.308l0,0c2.38-0.005,4.305-1.931,4.309-4.308l0,0c-0.004-2.383-1.929-4.305-4.309-4.311l0,0
		v-1.235v-1.236c3.746,0.002,6.779,3.037,6.779,6.782l0,0c0,3.745-3.035,6.777-6.779,6.779l0,0
		C79.59,305.622,76.558,302.589,76.556,298.844L76.556,298.844z"/>
	<path fill="#B8C893" d="M58.887,270.529c-3.062,0-5.544,2.483-5.544,5.544c0,3.062,2.482,5.545,5.544,5.545
		c3.062,0,5.545-2.483,5.545-5.545C64.432,273.011,61.949,270.529,58.887,270.529"/>
	<path fill="#B8C893" d="M52.107,276.073c0.002-3.747,3.035-6.779,6.78-6.782l0,0v1.237v1.236c-2.38,0.005-4.305,1.929-4.309,4.309
		l0,0c0.004,2.379,1.931,4.304,4.309,4.309l0,0c2.38-0.005,4.305-1.931,4.309-4.309l0,0c-0.004-2.38-1.929-4.305-4.309-4.309l0,0
		v-1.236v-1.237c3.745,0.003,6.78,3.035,6.78,6.782l0,0c0,3.743-3.035,6.778-6.78,6.78l0,0
		C55.142,282.851,52.107,279.816,52.107,276.073L52.107,276.073z"/>
	<path fill="#B8C893" d="M140.865,283.86c-4.9,0-8.871,3.971-8.871,8.87c0,4.898,3.971,8.871,8.871,8.871s8.872-3.973,8.872-8.871
		C149.736,287.831,145.764,283.86,140.865,283.86"/>
	<path fill="#B8C893" d="M130.016,292.73c0.002-5.992,4.855-10.847,10.848-10.849l0,0v1.977v1.977
		c-3.808,0.005-6.888,3.087-6.893,6.894l0,0c0.005,3.805,3.085,6.888,6.893,6.893l0,0c3.806-0.005,6.889-3.088,6.895-6.893l0,0
		c-0.006-3.807-3.09-6.889-6.895-6.894l0,0v-1.977v-1.977c5.991,0.002,10.848,4.857,10.848,10.849l0,0
		c0,5.991-4.857,10.846-10.848,10.848l0,0C134.871,303.576,130.018,298.721,130.016,292.73L130.016,292.73z"/>
	<path fill="#B8C893" d="M110.662,255.958c-4.899,0-8.87,3.971-8.87,8.871c0,4.898,3.971,8.871,8.87,8.871
		c4.9,0,8.872-3.973,8.872-8.871C119.534,259.929,115.562,255.958,110.662,255.958"/>
	<path fill="#B8C893" d="M99.814,264.829c0.002-5.992,4.855-10.847,10.848-10.85l0,0v1.979v1.977
		c-3.806,0.005-6.887,3.085-6.893,6.894l0,0c0.006,3.805,3.088,6.888,6.893,6.893l0,0c3.807-0.005,6.888-3.088,6.894-6.893l0,0
		c-0.005-3.807-3.087-6.888-6.894-6.894l0,0v-1.977v-1.979c5.992,0.003,10.846,4.856,10.848,10.85l0,0
		c-0.002,5.991-4.856,10.847-10.848,10.849l0,0C104.669,275.675,99.815,270.82,99.814,264.829L99.814,264.829z"/>
	<path fill="#B8C893" d="M83.336,231.364c-4.899,0-8.871,3.972-8.871,8.872c0,4.898,3.972,8.871,8.871,8.871
		c4.9,0,8.871-3.973,8.871-8.871C92.207,235.336,88.236,231.364,83.336,231.364"/>
	<path fill="#B8C893" d="M72.488,240.235c0-5.993,4.855-10.847,10.847-10.849l0,0v1.977v1.977c-3.805,0.008-6.888,3.088-6.894,6.895
		l0,0c0.006,3.806,3.088,6.888,6.894,6.894l0,0c3.807-0.005,6.888-3.088,6.895-6.894l0,0c-0.008-3.809-3.088-6.887-6.895-6.895l0,0
		v-1.977v-1.977c5.993,0.002,10.847,4.856,10.849,10.849l0,0c-0.002,5.991-4.856,10.847-10.849,10.847l0,0
		C77.344,251.082,72.491,246.226,72.488,240.235L72.488,240.235z"/>
	<path fill="#B8C893" d="M140.865,257.79c-5.512,0-9.979,4.469-9.979,9.981c0,5.511,4.467,9.978,9.979,9.978
		c5.513,0,9.98-4.467,9.98-9.978C150.845,262.259,146.377,257.79,140.865,257.79"/>
	<path fill="#B8C893" d="M128.661,267.77c0.001-6.739,5.462-12.201,12.204-12.204l0,0v2.223v2.224
		c-4.284,0.007-7.75,3.474-7.756,7.756l0,0c0.006,4.283,3.471,7.748,7.756,7.755l0,0c4.283-0.007,7.749-3.472,7.755-7.755l0,0
		c-0.006-4.283-3.472-7.75-7.755-7.756l0,0v-2.224v-2.223c6.742,0.003,12.201,5.465,12.203,12.204l0,0
		c-0.002,6.742-5.464,12.203-12.203,12.203l0,0C134.123,279.972,128.662,274.509,128.661,267.77L128.661,267.77z"/>
	<path fill="#B8C893" d="M110.662,229.89c-5.511,0-9.979,4.467-9.979,9.979c0,5.512,4.468,9.98,9.979,9.98
		c5.513,0,9.981-4.468,9.981-9.98C120.642,234.357,116.175,229.89,110.662,229.89"/>
	<path fill="#B8C893" d="M98.459,239.869c0.002-6.742,5.462-12.202,12.203-12.203l0,0v2.224v2.222
		c-4.284,0.008-7.749,3.474-7.757,7.757l0,0c0.008,4.283,3.472,7.749,7.757,7.755l0,0c4.284-0.007,7.749-3.472,7.756-7.755l0,0
		c-0.008-4.284-3.472-7.749-7.756-7.757l0,0v-2.222v-2.224c6.74,0.001,12.202,5.462,12.203,12.203l0,0
		c-0.001,6.741-5.463,12.201-12.203,12.203l0,0C103.921,252.07,98.461,246.61,98.459,239.869L98.459,239.869z"/>
	<path fill="#B8C893" d="M140.865,229.01c-6.124,0-11.088,4.965-11.088,11.089c0,6.123,4.964,11.088,11.088,11.088
		c6.125,0,11.09-4.965,11.09-11.088C151.955,233.975,146.99,229.01,140.865,229.01"/>
	<path fill="#B8C893" d="M127.305,240.098c0.002-7.49,6.071-13.557,13.559-13.559l0,0v2.47v2.471
		c-4.758,0.009-8.609,3.86-8.617,8.618l0,0c0.007,4.758,3.859,8.609,8.617,8.619l0,0c4.761-0.009,8.61-3.861,8.62-8.619l0,0
		c-0.01-4.758-3.862-8.609-8.62-8.618l0,0v-2.471v-2.47c7.491,0.001,13.559,6.069,13.561,13.559l0,0
		c-0.002,7.49-6.071,13.557-13.561,13.559l0,0C133.376,253.655,127.307,247.588,127.305,240.098L127.305,240.098z"/>
</g>
<text transform="matrix(1 0 0 1 42.0712 177.4185)"><tspan x="0" y="0" fill="#9B1B4F" font-family="'DINEngschriftStd'" font-size="40.6203">COMMON</tspan><tspan x="-40.985" y="35.881" fill="#9B1B4F" font-family="'DINEngschriftStd'" font-size="40.6203">MEDICINE CARD</tspan></text>
</svg>
