<?xml version="1.0" encoding="utf-8"?>
<!-- Generator: Adobe Illustrator 17.0.0, SVG Export Plug-In . SVG Version: 6.00 Build 0)  -->
<!DOCTYPE svg PUBLIC "-//W3C//DTD SVG 1.1//EN" "http://www.w3.org/Graphics/SVG/1.1/DTD/svg11.dtd">
<svg version="1.1" id="Layer_1" xmlns="http://www.w3.org/2000/svg" xmlns:xlink="http://www.w3.org/1999/xlink" x="0px" y="0px"
	 width="288.871px" height="531.945px" viewBox="0 0 288.871 531.945" enable-background="new 0 0 288.871 531.945"
	 xml:space="preserve">
<g>
	<path fill="#B8C893" d="M88.49,81.105c6.332,0,11.465-5.134,11.465-11.465c0-6.333-5.132-11.466-11.465-11.466
		c-6.332,0-11.464,5.133-11.464,11.466C77.026,75.972,82.158,81.105,88.49,81.105"/>
	<path fill="#B8C893" d="M74.469,69.639c0.003-7.744,6.275-14.017,14.02-14.02l0,0c7.744,0.003,14.02,6.276,14.02,14.02l0,0
		c0,7.745-6.276,14.018-14.02,14.02l0,0v-2.553V78.55c4.92-0.008,8.902-3.99,8.911-8.911l0,0c-0.009-4.92-3.99-8.902-8.911-8.91l0,0
		c-4.921,0.008-8.9,3.99-8.908,8.91l0,0c0.008,4.921,3.987,8.903,8.908,8.911l0,0v2.556v2.553
		C80.744,83.657,74.471,77.384,74.469,69.639L74.469,69.639z"/>
	<path fill="#B8C893" d="M133.102,122.318c6.333,0,11.465-5.133,11.465-11.465c0-6.332-5.132-11.466-11.465-11.466
		c-6.332,0-11.464,5.133-11.464,11.466C121.638,117.185,126.77,122.318,133.102,122.318"/>
	<path fill="#B8C893" d="M119.082,110.854c0.003-7.743,6.274-14.02,14.02-14.022l0,0c7.742,0.003,14.016,6.279,14.019,14.022l0,0
		c-0.002,7.743-6.276,14.017-14.019,14.02l0,0v-2.555v-2.556c4.919-0.008,8.9-3.99,8.908-8.909l0,0
		c-0.008-4.922-3.989-8.903-8.908-8.912l0,0c-4.922,0.008-8.901,3.99-8.909,8.912l0,0c0.008,4.919,3.987,8.9,8.909,8.909l0,0v2.556
		v2.555C125.356,124.871,119.085,118.597,119.082,110.854L119.082,110.854z"/>
	<path fill="#B8C893" d="M173.465,158.646c6.333,0,11.465-5.134,11.465-11.465c0-6.332-5.132-11.465-11.465-11.465
		c-6.332,0-11.465,5.133-11.465,11.465C162,153.512,167.133,158.646,173.465,158.646"/>
	<path fill="#B8C893" d="M159.443,147.179c0.003-7.745,6.277-14.017,14.02-14.02l0,0c7.744,0.003,14.018,6.277,14.018,14.02l0,0
		c0,7.744-6.271,14.019-14.018,14.022l0,0v-2.557v-2.554c4.921-0.008,8.902-3.99,8.911-8.911l0,0
		c-0.009-4.921-3.987-8.901-8.911-8.909l0,0c-4.918,0.008-8.9,3.988-8.908,8.909l0,0c0.008,4.921,3.99,8.903,8.908,8.911l0,0v2.554
		v2.557C165.721,161.198,159.446,154.923,159.443,147.179L159.443,147.179z"/>
	<path fill="#B8C893" d="M209.58,192.282c6.331,0,11.464-5.134,11.464-11.465c0-6.333-5.133-11.465-11.464-11.465
		c-6.334,0-11.465,5.133-11.465,11.465C198.115,187.147,203.246,192.282,209.58,192.282"/>
	<path fill="#B8C893" d="M195.56,180.815c0-7.742,6.275-14.019,14.021-14.019l0,0c7.743,0,14.016,6.276,14.018,14.019l0,0
		c-0.002,7.745-6.274,14.018-14.018,14.021l0,0v-2.554v-2.557c4.918-0.008,8.899-3.99,8.907-8.91l0,0
		c-0.008-4.92-3.989-8.902-8.907-8.91l0,0c-4.924,0.008-8.902,3.99-8.912,8.91l0,0c0.01,4.92,3.988,8.902,8.912,8.91l0,0v2.557
		v2.554C201.832,194.833,195.56,188.557,195.56,180.815L195.56,180.815z"/>
	<path fill="#B8C893" d="M88.49,50.611c5.428,0,9.828-4.399,9.828-9.827c0-5.428-4.4-9.827-9.828-9.827
		c-5.428,0-9.827,4.399-9.827,9.827C78.663,46.212,83.062,50.611,88.49,50.611"/>
	<path fill="#B8C893" d="M76.472,40.784c0-6.64,5.379-12.016,12.016-12.019l0,0c6.637,0.003,12.016,5.379,12.018,12.019l0,0
		c-0.002,6.637-5.381,12.014-12.018,12.016l0,0v-2.19V48.42c4.219-0.008,7.631-3.418,7.639-7.637l0,0
		c-0.008-4.218-3.42-7.631-7.639-7.64l0,0c-4.218,0.009-7.629,3.421-7.636,7.64l0,0c0.008,4.219,3.418,7.628,7.636,7.637l0,0v2.189
		v2.19C81.851,52.8,76.472,47.421,76.472,40.784L76.472,40.784z"/>
	<path fill="#B8C893" d="M133.102,91.824c5.428,0,9.828-4.399,9.828-9.827c0-5.428-4.4-9.827-9.828-9.827
		c-5.428,0-9.827,4.399-9.827,9.827C123.275,87.425,127.674,91.824,133.102,91.824"/>
	<path fill="#B8C893" d="M121.085,81.996c0-6.637,5.379-12.016,12.018-12.016l0,0c6.635,0,12.013,5.376,12.016,12.016l0,0
		c-0.002,6.637-5.381,12.016-12.016,12.016l0,0v-2.188v-2.19c4.217-0.009,7.63-3.421,7.638-7.638l0,0
		c-0.008-4.219-3.42-7.629-7.638-7.638l0,0c-4.219,0.008-7.632,3.418-7.64,7.638l0,0c0.008,4.219,3.421,7.629,7.64,7.638l0,0v2.19
		v2.188C126.464,94.012,121.085,88.633,121.085,81.996L121.085,81.996z"/>
	<path fill="#B8C893" d="M173.465,128.15c5.428,0,9.828-4.399,9.828-9.827c0-5.427-4.4-9.827-9.828-9.827
		c-5.428,0-9.826,4.4-9.826,9.827C163.639,123.751,168.037,128.15,173.465,128.15"/>
	<path fill="#B8C893" d="M161.449,118.322c0-6.637,5.377-12.014,12.016-12.016l0,0c6.638,0.002,12.014,5.379,12.016,12.016l0,0
		c-0.002,6.64-5.382,12.017-12.016,12.017l0,0v-2.188v-2.19c4.217-0.008,7.631-3.42,7.639-7.638l0,0
		c-0.008-4.215-3.422-7.63-7.639-7.636l0,0c-4.217,0.006-7.631,3.418-7.639,7.636l0,0c0.008,4.218,3.418,7.63,7.639,7.638l0,0v2.19
		v2.188C166.826,130.338,161.449,124.961,161.449,118.322L161.449,118.322z"/>
	<path fill="#B8C893" d="M209.58,161.787c5.428,0,9.826-4.399,9.826-9.827c0-5.428-4.398-9.827-9.826-9.827
		c-5.428,0-9.828,4.399-9.828,9.827C199.752,157.388,204.152,161.787,209.58,161.787"/>
	<path fill="#B8C893" d="M197.561,151.96c0.002-6.64,5.38-12.017,12.02-12.017l0,0c6.637,0,12.015,5.378,12.015,12.017l0,0
		c0,6.637-5.378,12.014-12.015,12.014l0,0v-2.189v-2.189c4.216-0.008,7.629-3.418,7.637-7.636l0,0
		c-0.008-4.221-3.421-7.63-7.637-7.639l0,0c-4.221,0.008-7.633,3.42-7.641,7.639l0,0c0.008,4.215,3.42,7.628,7.641,7.636l0,0v2.189
		v2.189C202.941,163.974,197.563,158.597,197.561,151.96L197.561,151.96z"/>
	<path fill="#B8C893" d="M88.49,24.122c4.523,0,8.19-3.667,8.19-8.19c0-4.523-3.666-8.19-8.19-8.19c-4.523,0-8.189,3.667-8.189,8.19
		C80.3,20.455,83.967,24.122,88.49,24.122"/>
	<path fill="#B8C893" d="M78.474,15.931C78.477,10.4,82.959,5.918,88.489,5.918l0,0c5.531,0,10.013,4.482,10.013,10.013l0,0
		c0,5.53-4.482,10.013-10.013,10.015l0,0v-1.826v-1.824c3.516-0.008,6.358-2.85,6.366-6.366l0,0
		c-0.008-3.516-2.85-6.358-6.366-6.366l0,0c-3.516,0.008-6.357,2.85-6.366,6.366l0,0c0.009,3.516,2.85,6.358,6.366,6.366l0,0v1.824
		v1.826C82.959,25.944,78.477,21.461,78.474,15.931L78.474,15.931z"/>
	<path fill="#B8C893" d="M133.102,65.335c4.523,0,8.19-3.667,8.19-8.19c0-4.523-3.667-8.19-8.19-8.19c-4.523,0-8.19,3.667-8.19,8.19
		C124.912,61.668,128.579,65.335,133.102,65.335"/>
	<path fill="#B8C893" d="M123.087,57.143c0.002-5.531,4.484-10.013,10.015-10.013l0,0c5.531,0,10.012,4.481,10.016,10.013l0,0
		c-0.004,5.531-4.485,10.013-10.016,10.016l0,0v-1.825V63.51c3.514-0.008,6.358-2.851,6.364-6.367l0,0
		c-0.005-3.514-2.85-6.358-6.364-6.364l0,0c-3.514,0.006-6.359,2.851-6.364,6.364l0,0c0.005,3.517,2.851,6.359,6.364,6.367l0,0
		v1.823v1.825C127.57,67.156,123.089,62.674,123.087,57.143L123.087,57.143z"/>
	<path fill="#B8C893" d="M173.465,101.662c4.523,0,8.189-3.667,8.189-8.19c0-4.523-3.666-8.19-8.189-8.19
		c-4.523,0-8.189,3.667-8.189,8.19C165.276,97.995,168.942,101.662,173.465,101.662"/>
	<path fill="#B8C893" d="M163.448,93.472c0.003-5.532,4.483-10.014,10.015-10.017l0,0c5.532,0.003,10.014,4.484,10.016,10.017l0,0
		c-0.002,5.53-4.483,10.011-10.016,10.011l0,0v-1.823v-1.824c3.516-0.006,6.359-2.85,6.365-6.364l0,0
		c-0.006-3.516-2.85-6.36-6.365-6.366l0,0c-3.514,0.005-6.358,2.85-6.363,6.366l0,0c0.005,3.514,2.85,6.358,6.363,6.364l0,0v1.824
		v1.823C167.932,103.483,163.451,99.002,163.448,93.472L163.448,93.472z"/>
	<path fill="#B8C893" d="M209.58,135.297c4.522,0,8.189-3.666,8.189-8.189c0-4.523-3.667-8.188-8.189-8.188
		c-4.523,0-8.191,3.665-8.191,8.188C201.39,131.631,205.057,135.297,209.58,135.297"/>
	<path fill="#B8C893" d="M199.563,127.108c0.003-5.534,4.485-10.014,10.018-10.014l0,0c5.528,0,10.011,4.48,10.014,10.014l0,0
		c-0.003,5.528-4.482,10.011-10.014,10.014l0,0v-1.824v-1.825c3.514-0.008,6.355-2.851,6.361-6.365l0,0
		c-0.006-3.516-2.848-6.359-6.361-6.365l0,0c-3.517,0.006-6.359,2.849-6.369,6.365l0,0c0.01,3.514,2.853,6.356,6.369,6.365l0,0
		v1.825v1.824C204.048,137.12,199.566,132.64,199.563,127.108L199.563,127.108z"/>
	<path fill="#B8C893" d="M88.49,115.606c7.238,0,13.103-5.866,13.103-13.104c0-7.236-5.866-13.104-13.103-13.104
		c-7.237,0-13.103,5.868-13.103,13.104C75.387,109.74,81.253,115.606,88.49,115.606"/>
	<path fill="#B8C893" d="M72.466,102.503c0.002-8.852,7.172-16.022,16.024-16.024l0,0c8.85,0.002,16.022,7.172,16.022,16.024l0,0
		c0,8.849-7.172,16.019-16.022,16.021l0,0v-2.92v-2.92c5.624-0.011,10.174-4.559,10.183-10.182l0,0
		c-0.008-5.624-4.559-10.174-10.183-10.185l0,0c-5.624,0.011-10.174,4.561-10.185,10.185l0,0
		c0.011,5.623,4.561,10.171,10.185,10.182l0,0v2.92v2.92C79.638,118.522,72.468,111.353,72.466,102.503L72.466,102.503z"/>
	<path fill="#9B1B4F" d="M133.102,156.819c7.237,0,13.104-5.867,13.104-13.104c0-7.235-5.867-13.103-13.104-13.103
		c-7.237,0-13.103,5.868-13.103,13.103C119.999,150.952,125.865,156.819,133.102,156.819"/>
	<path fill="#9B1B4F" d="M117.079,143.716c0.002-8.85,7.171-16.022,16.024-16.024l0,0c8.85,0.002,16.02,7.174,16.023,16.024l0,0
		c-0.003,8.85-7.172,16.019-16.023,16.021l0,0v-2.918v-2.92c5.622-0.011,10.172-4.561,10.183-10.183l0,0
		c-0.01-5.622-4.561-10.175-10.183-10.186l0,0c-5.624,0.011-10.174,4.564-10.185,10.186l0,0c0.011,5.622,4.561,10.172,10.185,10.183
		l0,0v2.92v2.918C124.25,159.735,117.081,152.566,117.079,143.716L117.079,143.716z"/>
	<path fill="#B8C893" d="M173.465,193.146c7.237,0,13.104-5.867,13.104-13.103c0-7.235-5.866-13.104-13.104-13.104
		c-7.237,0-13.102,5.868-13.102,13.104C160.362,187.279,166.228,193.146,173.465,193.146"/>
	<path fill="#B8C893" d="M157.44,180.041c0.003-8.85,7.174-16.02,16.023-16.023l0,0c8.853,0.003,16.023,7.173,16.025,16.023l0,0
		c-0.002,8.85-7.173,16.023-16.025,16.023l0,0v-2.917v-2.92c5.623-0.011,10.176-4.561,10.186-10.185l0,0
		c-0.01-5.621-4.562-10.173-10.186-10.182l0,0c-5.623,0.008-10.174,4.561-10.183,10.182l0,0c0.009,5.624,4.56,10.174,10.183,10.185
		l0,0v2.92v2.917C164.613,196.064,157.443,188.891,157.44,180.041L157.44,180.041z"/>
	<path fill="#B8C893" d="M88.49,154.113c8.142,0,14.741-6.601,14.741-14.742c0-8.142-6.599-14.741-14.741-14.741
		c-8.142,0-14.741,6.599-14.741,14.741C73.749,147.512,80.348,154.113,88.49,154.113"/>
	<path fill="#B8C893" d="M70.464,139.37c0.003-9.957,8.07-18.022,18.024-18.024l0,0c9.957,0.002,18.025,8.067,18.025,18.024l0,0
		c0,9.957-8.068,18.025-18.025,18.028l0,0v-3.284v-3.286c6.327-0.011,11.446-5.13,11.458-11.458l0,0
		c-0.011-6.326-5.13-11.446-11.458-11.457l0,0c-6.327,0.01-11.447,5.13-11.457,11.457l0,0c0.01,6.328,5.13,11.447,11.457,11.458l0,0
		v3.286v3.284C78.531,157.395,70.467,149.327,70.464,139.37L70.464,139.37z"/>
	<path fill="#B8C893" d="M133.102,195.325c8.142,0,14.741-6.601,14.741-14.74c0-8.142-6.599-14.742-14.741-14.742
		c-8.142,0-14.741,6.599-14.741,14.742C118.361,188.725,124.96,195.325,133.102,195.325"/>
	<path fill="#B8C893" d="M115.077,180.585c0.002-9.956,8.067-18.024,18.024-18.027l0,0c9.957,0.002,18.024,8.07,18.026,18.027l0,0
		c-0.002,9.955-8.069,18.021-18.026,18.024l0,0v-3.283v-3.286c6.326-0.011,11.447-5.132,11.457-11.455l0,0
		c-0.01-6.328-5.129-11.447-11.457-11.457l0,0c-6.328,0.011-11.443,5.129-11.455,11.457l0,0c0.011,6.325,5.129,11.444,11.455,11.455
		l0,0v3.286v3.283C123.144,198.606,115.079,190.54,115.077,180.585L115.077,180.585z"/>
	<path fill="#B8C893" d="M88.49,196.624c9.047,0,16.38-7.333,16.38-16.379c0-9.045-7.333-16.378-16.38-16.378
		c-9.046,0-16.379,7.333-16.379,16.378C72.11,189.291,79.443,196.624,88.49,196.624"/>
	<path fill="#B8C893" d="M68.462,180.245c0-11.064,8.965-20.025,20.027-20.028l0,0c11.063,0.002,20.025,8.964,20.028,20.028l0,0
		c-0.003,11.062-8.964,20.024-20.028,20.028l0,0v-3.647v-3.651c7.031-0.014,12.716-5.7,12.73-12.729l0,0
		c-0.014-7.03-5.699-12.716-12.73-12.73l0,0c-7.03,0.014-12.718,5.7-12.729,12.73l0,0c0.011,7.03,5.7,12.716,12.729,12.729l0,0
		v3.651v3.647C77.427,200.269,68.462,191.307,68.462,180.245L68.462,180.245z"/>
	<path fill="#B8C893" d="M206.554,451.912c-6.331,0-11.464,5.134-11.464,11.465c0,6.332,5.133,11.465,11.464,11.465
		c6.334,0,11.466-5.133,11.466-11.465C218.02,457.045,212.888,451.912,206.554,451.912"/>
	<path fill="#B8C893" d="M192.534,463.376c0-7.744,6.274-14.02,14.018-14.022l0,0v2.556v2.555c-4.918,0.009-8.9,3.991-8.91,8.912
		l0,0c0.01,4.92,3.992,8.9,8.91,8.911l0,0c4.922-0.012,8.902-3.991,8.911-8.911l0,0c-0.009-4.921-3.989-8.903-8.911-8.912l0,0
		v-2.555v-2.556c7.745,0.003,14.02,6.278,14.02,14.022l0,0c0,7.743-6.274,14.017-14.02,14.02l0,0
		C198.809,477.393,192.534,471.12,192.534,463.376L192.534,463.376z"/>
	<path fill="#B8C893" d="M161.942,410.699c-6.331,0-11.464,5.133-11.464,11.464c0,6.334,5.133,11.467,11.464,11.467
		c6.334,0,11.465-5.133,11.465-11.467C173.406,415.832,168.276,410.699,161.942,410.699"/>
	<path fill="#B8C893" d="M147.921,422.162c0.004-7.744,6.276-14.019,14.02-14.019l0,0v2.555v2.555
		c-4.92,0.01-8.902,3.991-8.91,8.909l0,0c0.008,4.923,3.99,8.902,8.91,8.912l0,0c4.921-0.01,8.9-3.989,8.908-8.912l0,0
		c-0.008-4.921-3.987-8.899-8.908-8.909l0,0v-2.555v-2.555c7.744,0,14.018,6.276,14.018,14.019l0,0
		c0,7.744-6.273,14.02-14.018,14.02l0,0C154.197,436.182,147.925,429.906,147.921,422.162L147.921,422.162z"/>
	<path fill="#B8C893" d="M121.579,374.372c-6.332,0-11.465,5.134-11.465,11.465c0,6.332,5.132,11.466,11.465,11.466
		c6.332,0,11.464-5.134,11.464-11.466C133.044,379.505,127.911,374.372,121.579,374.372"/>
	<path fill="#B8C893" d="M107.56,385.835c0-7.742,6.275-14.018,14.019-14.018l0,0v2.553v2.557c-4.92,0.008-8.901,3.991-8.909,8.908
		l0,0c0.008,4.922,3.989,8.901,8.909,8.913l0,0c4.921-0.012,8.901-3.991,8.909-8.913l0,0c-0.008-4.917-3.988-8.9-8.909-8.908l0,0
		v-2.557v-2.553c7.744,0,14.019,6.275,14.019,14.018l0,0c0,7.744-6.275,14.02-14.019,14.022l0,0
		C113.835,399.854,107.56,393.579,107.56,385.835L107.56,385.835z"/>
	<path fill="#B8C893" d="M85.465,340.736c-6.333,0-11.464,5.133-11.464,11.464c0,6.333,5.131,11.467,11.464,11.467
		c6.333,0,11.465-5.134,11.465-11.467C96.93,345.869,91.797,340.736,85.465,340.736"/>
	<path fill="#B8C893" d="M71.444,352.2c0.002-7.744,6.275-14.02,14.02-14.02l0,0v2.555v2.553c-4.922,0.012-8.901,3.99-8.909,8.912
		l0,0c0.008,4.921,3.987,8.902,8.909,8.91l0,0c4.92-0.008,8.901-3.989,8.91-8.91l0,0c-0.008-4.919-3.99-8.9-8.91-8.912l0,0v-2.553
		v-2.555c7.745,0,14.018,6.275,14.02,14.02l0,0c-0.002,7.743-6.276,14.019-14.02,14.021l0,0
		C77.719,366.218,71.447,359.943,71.444,352.2L71.444,352.2z"/>
	<path fill="#B8C893" d="M206.554,482.407c-5.429,0-9.825,4.398-9.825,9.827c0,5.428,4.396,9.827,9.825,9.827
		s9.829-4.399,9.829-9.827C216.383,486.805,211.983,482.407,206.554,482.407"/>
	<path fill="#B8C893" d="M194.538,492.234c0-6.64,5.376-12.018,12.015-12.018l0,0v2.189v2.188c-4.217,0.008-7.63,3.421-7.638,7.641
		l0,0c0.008,4.217,3.421,7.628,7.638,7.637l0,0c4.218-0.009,7.631-3.42,7.64-7.637l0,0c-0.009-4.22-3.422-7.633-7.64-7.641l0,0
		v-2.188v-2.189c6.637,0,12.016,5.378,12.018,12.018l0,0c-0.002,6.637-5.381,12.013-12.018,12.016l0,0
		C199.914,504.25,194.538,498.871,194.538,492.234L194.538,492.234z"/>
	<path fill="#B8C893" d="M161.942,441.194c-5.428,0-9.826,4.399-9.826,9.827c0,5.427,4.398,9.827,9.826,9.827
		c5.428,0,9.828-4.4,9.828-9.827C171.77,445.593,167.369,441.194,161.942,441.194"/>
	<path fill="#B8C893" d="M149.925,451.02c0-6.637,5.376-12.016,12.017-12.016l0,0v2.188v2.187c-4.218,0.01-7.632,3.421-7.637,7.641
		l0,0c0.005,4.218,3.419,7.628,7.637,7.638l0,0c4.217-0.01,7.631-3.422,7.637-7.638l0,0c-0.006-4.217-3.42-7.631-7.637-7.641l0,0
		v-2.187v-2.188c6.637,0,12.016,5.376,12.016,12.016l0,0c0,6.638-5.379,12.015-12.016,12.017l0,0
		C155.301,463.035,149.925,457.656,149.925,451.02L149.925,451.02z"/>
	<path fill="#B8C893" d="M121.579,404.866c-5.428,0-9.827,4.4-9.827,9.827c0,5.429,4.399,9.827,9.827,9.827
		c5.428,0,9.827-4.398,9.827-9.827C131.406,409.266,127.007,404.866,121.579,404.866"/>
	<path fill="#B8C893" d="M109.562,414.693c0-6.638,5.378-12.016,12.016-12.017l0,0v2.192v2.186c-4.217,0.009-7.629,3.422-7.637,7.64
		l0,0c0.008,4.216,3.419,7.629,7.637,7.638l0,0c4.218-0.009,7.629-3.419,7.637-7.638l0,0c-0.008-4.218-3.419-7.631-7.637-7.64l0,0
		v-2.186v-2.192c6.638,0.002,12.017,5.38,12.017,12.017l0,0c0,6.636-5.378,12.018-12.017,12.018l0,0
		C114.94,426.707,109.562,421.332,109.562,414.693L109.562,414.693z"/>
	<path fill="#B8C893" d="M85.465,371.23c-5.428,0-9.827,4.4-9.827,9.827c0,5.428,4.399,9.827,9.827,9.827
		c5.428,0,9.827-4.4,9.827-9.827C95.292,375.63,90.893,371.23,85.465,371.23"/>
	<path fill="#B8C893" d="M73.447,381.057c0.002-6.637,5.378-12.016,12.018-12.018l0,0v2.191v2.188
		c-4.219,0.008-7.63,3.421-7.639,7.639l0,0c0.008,4.217,3.42,7.628,7.639,7.636l0,0c4.216-0.008,7.628-3.419,7.636-7.636l0,0
		c-0.008-4.218-3.42-7.631-7.636-7.639l0,0v-2.188v-2.191c6.638,0.003,12.013,5.379,12.017,12.018l0,0
		c-0.003,6.638-5.379,12.013-12.017,12.016l0,0C78.827,393.073,73.449,387.693,73.447,381.057L73.447,381.057z"/>
	<path fill="#B8C893" d="M206.554,508.895c-4.523,0-8.189,3.667-8.189,8.19c0,4.523,3.666,8.19,8.189,8.19
		c4.524,0,8.19-3.666,8.19-8.19C214.744,512.562,211.078,508.895,206.554,508.895"/>
	<path fill="#B8C893" d="M196.539,517.085c0-5.533,4.48-10.014,10.014-10.017l0,0v1.825v1.824c-3.515,0.005-6.359,2.85-6.363,6.367
		l0,0c0.004,3.512,2.849,6.357,6.363,6.364l0,0c3.516-0.008,6.358-2.853,6.365-6.364l0,0c-0.007-3.518-2.85-6.362-6.365-6.367l0,0
		v-1.824v-1.825c5.531,0.003,10.014,4.483,10.014,10.017l0,0c0,5.53-4.482,10.011-10.014,10.014l0,0
		C201.02,527.096,196.539,522.616,196.539,517.085L196.539,517.085z"/>
	<path fill="#B8C893" d="M161.942,467.683c-4.522,0-8.189,3.666-8.189,8.189c0,4.523,3.667,8.19,8.189,8.19
		c4.524,0,8.19-3.667,8.19-8.19C170.132,471.349,166.466,467.683,161.942,467.683"/>
	<path fill="#B8C893" d="M151.926,475.871c0.002-5.532,4.483-10.013,10.016-10.013l0,0v1.824v1.826
		c-3.516,0.006-6.359,2.85-6.366,6.362l0,0c0.007,3.516,2.851,6.358,6.366,6.366l0,0c3.516-0.008,6.359-2.851,6.363-6.366l0,0
		c-0.004-3.513-2.848-6.357-6.363-6.362l0,0v-1.826v-1.824c5.529,0,10.014,4.48,10.014,10.013l0,0
		c0,5.532-4.484,10.014-10.014,10.017l0,0C156.409,485.884,151.928,481.403,151.926,475.871L151.926,475.871z"/>
	<path fill="#B8C893" d="M121.579,431.355c-4.523,0-8.19,3.667-8.19,8.19c0,4.522,3.666,8.189,8.19,8.189
		c4.523,0,8.189-3.667,8.189-8.189C129.769,435.022,126.102,431.355,121.579,431.355"/>
	<path fill="#B8C893" d="M111.563,439.545c0.003-5.532,4.483-10.015,10.015-10.018l0,0v1.826v1.824
		c-3.513,0.008-6.359,2.848-6.365,6.367l0,0c0.006,3.512,2.85,6.355,6.365,6.363l0,0c3.516-0.008,6.359-2.852,6.364-6.363l0,0
		c-0.005-3.52-2.849-6.359-6.364-6.367l0,0v-1.824v-1.826c5.534,0.003,10.014,4.485,10.014,10.018l0,0
		c0,5.531-4.483,10.011-10.014,10.014l0,0C116.046,449.556,111.567,445.077,111.563,439.545L111.563,439.545z"/>
	<path fill="#B8C893" d="M85.465,397.72c-4.523,0-8.189,3.667-8.189,8.189c0,4.523,3.666,8.19,8.189,8.19
		c4.524,0,8.19-3.667,8.19-8.19C93.655,401.387,89.988,397.72,85.465,397.72"/>
	<path fill="#B8C893" d="M75.45,405.91c0.002-5.534,4.483-10.014,10.014-10.017l0,0v1.827v1.825
		c-3.516,0.007-6.359,2.85-6.365,6.365l0,0c0.006,3.514,2.852,6.358,6.365,6.365l0,0c3.516-0.008,6.359-2.852,6.365-6.365l0,0
		c-0.005-3.516-2.849-6.358-6.365-6.365l0,0v-1.825v-1.827c5.531,0.004,10.014,4.483,10.014,10.017l0,0
		c0,5.528-4.483,10.012-10.014,10.015l0,0C79.933,415.921,75.45,411.438,75.45,405.91L75.45,405.91z"/>
	<path fill="#B8C893" d="M206.554,417.412c-7.237,0-13.103,5.866-13.103,13.102c0,7.235,5.865,13.104,13.103,13.104
		s13.104-5.868,13.104-13.104C219.658,423.278,213.791,417.412,206.554,417.412"/>
	<path fill="#B8C893" d="M190.529,430.514c0.003-8.85,7.172-16.022,16.023-16.025l0,0v2.921v2.921
		c-5.625,0.008-10.174,4.56-10.182,10.184l0,0c0.008,5.62,4.557,10.174,10.182,10.182l0,0c5.621-0.008,10.176-4.561,10.185-10.182
		l0,0c-0.009-5.624-4.564-10.176-10.185-10.184l0,0v-2.921v-2.921c8.85,0.003,16.023,7.175,16.023,16.025l0,0
		c0,8.85-7.174,16.021-16.023,16.024l0,0C197.701,446.535,190.532,439.364,190.529,430.514L190.529,430.514z"/>
	<path fill="#B8C893" d="M161.942,376.199c-7.236,0-13.102,5.865-13.102,13.103c0,7.235,5.865,13.104,13.102,13.104
		c7.238,0,13.105-5.868,13.105-13.104C175.047,382.064,169.18,376.199,161.942,376.199"/>
	<path fill="#B8C893" d="M145.918,389.301c0.002-8.85,7.171-16.022,16.024-16.026l0,0v2.923v2.921
		c-5.621,0.008-10.173,4.557-10.182,10.183l0,0c0.009,5.62,4.561,10.174,10.182,10.182l0,0c5.623-0.008,10.175-4.561,10.183-10.182
		l0,0c-0.008-5.624-4.56-10.175-10.183-10.183l0,0v-2.921v-2.923c8.851,0.004,16.021,7.173,16.023,16.026l0,0
		c-0.003,8.85-7.173,16.022-16.023,16.025l0,0C153.089,405.323,145.92,398.151,145.918,389.301L145.918,389.301z"/>
	<path fill="#B8C893" d="M121.579,339.871c-7.237,0-13.104,5.867-13.104,13.104c0,7.235,5.867,13.104,13.104,13.104
		c7.237,0,13.103-5.868,13.103-13.104C134.682,345.738,128.817,339.871,121.579,339.871"/>
	<path fill="#B8C893" d="M105.556,352.974c0-8.852,7.171-16.022,16.022-16.024l0,0v2.92v2.92
		c-5.621,0.012-10.174,4.562-10.183,10.185l0,0c0.009,5.621,4.562,10.175,10.183,10.183l0,0c5.624-0.008,10.174-4.561,10.185-10.183
		l0,0c-0.011-5.626-4.561-10.173-10.185-10.185l0,0v-2.92v-2.92c8.852,0.003,16.022,7.173,16.024,16.024l0,0
		c-0.002,8.849-7.173,16.021-16.024,16.021l0,0C112.727,368.996,105.559,361.823,105.556,352.974L105.556,352.974z"/>
	<path fill="#B8C893" d="M206.554,378.905c-8.142,0-14.74,6.6-14.74,14.742c0,8.141,6.599,14.739,14.74,14.739
		c8.143,0,14.741-6.599,14.741-14.739C221.295,385.505,214.696,378.905,206.554,378.905"/>
	<path fill="#B8C893" d="M188.527,393.645c0.002-9.954,8.068-18.022,18.026-18.026l0,0v3.284v3.285
		c-6.327,0.01-11.447,5.131-11.456,11.457l0,0c0.009,6.326,5.127,11.444,11.456,11.455l0,0c6.326-0.011,11.446-5.129,11.455-11.455
		l0,0c-0.009-6.326-5.129-11.447-11.455-11.457l0,0v-3.285v-3.284c9.958,0.004,18.022,8.072,18.025,18.026l0,0
		c-0.003,9.958-8.071,18.024-18.025,18.024l0,0C196.596,411.669,188.529,403.6,188.527,393.645L188.527,393.645z"/>
	<path fill="#B8C893" d="M161.942,337.693c-8.141,0-14.74,6.599-14.74,14.74s6.599,14.741,14.74,14.741
		c8.143,0,14.742-6.6,14.742-14.741S170.084,337.693,161.942,337.693"/>
	<path fill="#B8C893" d="M143.916,352.433c0.003-9.958,8.068-18.023,18.025-18.025l0,0v3.285v3.282
		c-6.328,0.012-11.445,5.131-11.457,11.458l0,0c0.012,6.327,5.129,11.445,11.457,11.455l0,0c6.328-0.01,11.445-5.128,11.457-11.455
		l0,0c-0.012-6.327-5.129-11.446-11.457-11.458l0,0v-3.282v-3.285c9.956,0.002,18.023,8.067,18.025,18.025l0,0
		c-0.002,9.957-8.069,18.022-18.025,18.025l0,0C151.984,370.456,143.919,362.39,143.916,352.433L143.916,352.433z"/>
	<path fill="#B8C893" d="M206.554,336.393c-9.046,0-16.378,7.334-16.378,16.38c0,9.045,7.332,16.378,16.378,16.378
		c9.048,0,16.381-7.333,16.381-16.378C222.935,343.727,215.602,336.393,206.554,336.393"/>
	<path fill="#B8C893" d="M186.526,352.771c0.003-11.064,8.967-20.025,20.027-20.027l0,0v3.648v3.649
		c-7.027,0.013-12.717,5.702-12.727,12.73l0,0c0.011,7.027,5.7,12.717,12.727,12.73l0,0c7.032-0.014,12.718-5.703,12.732-12.73l0,0
		c-0.015-7.027-5.704-12.717-12.732-12.73l0,0v-3.649v-3.648c11.065,0.002,20.027,8.964,20.03,20.027l0,0
		c-0.003,11.063-8.968,20.025-20.03,20.028l0,0C195.492,372.796,186.528,363.835,186.526,352.771L186.526,352.771z"/>
</g>
<text transform="matrix(1 0 0 1 60.6268 260.1892)"><tspan x="0" y="0" fill="#9B1B4F" font-family="'DINEngschriftStd'" font-size="60">COMMON</tspan><tspan x="-60.539" y="53" fill="#9B1B4F" font-family="'DINEngschriftStd'" font-size="60">MEDICINE CARD</tspan></text>
</svg>
