<?xml version="1.0" encoding="utf-8"?>
<!-- Generator: Adobe Illustrator 17.0.0, SVG Export Plug-In . SVG Version: 6.00 Build 0)  -->
<!DOCTYPE svg PUBLIC "-//W3C//DTD SVG 1.1//EN" "http://www.w3.org/Graphics/SVG/1.1/DTD/svg11.dtd">
<svg version="1.1" id="Layer_1" xmlns="http://www.w3.org/2000/svg" xmlns:xlink="http://www.w3.org/1999/xlink" x="0px" y="0px"
	 width="236.248px" height="27.726px" viewBox="0 0 236.248 27.726" enable-background="new 0 0 236.248 27.726"
	 xml:space="preserve">
<g>
	<path fill="#FFFFFF" d="M6.449,22.832c0,0.354-0.21,0.645-0.627,0.876c-0.419,0.23-0.833,0.345-1.242,0.345
		c-0.285,0-0.552-0.142-0.801-0.424c-0.249-0.283-0.374-0.575-0.374-0.876c0-0.212,0.089-0.46,0.267-0.742
		c0.089-0.141,0.4-0.531,0.934-1.168c0.445,0.177,0.845,0.433,1.202,0.769C6.235,22.018,6.449,22.425,6.449,22.832z"/>
	<path fill="#FFFFFF" d="M16.274,22.832c0,0.354-0.21,0.645-0.627,0.876c-0.419,0.23-0.833,0.345-1.242,0.345
		c-0.285,0-0.552-0.142-0.801-0.424c-0.249-0.283-0.374-0.575-0.374-0.876c0-0.212,0.089-0.46,0.267-0.742
		c0.089-0.141,0.4-0.531,0.934-1.168c0.445,0.177,0.845,0.433,1.202,0.769C16.06,22.018,16.274,22.425,16.274,22.832z"/>
	<path fill="#FFFFFF" d="M26.098,22.832c0,0.354-0.21,0.645-0.627,0.876c-0.419,0.23-0.833,0.345-1.242,0.345
		c-0.285,0-0.552-0.142-0.801-0.424c-0.249-0.283-0.374-0.575-0.374-0.876c0-0.212,0.089-0.46,0.267-0.742
		c0.089-0.141,0.4-0.531,0.934-1.168c0.445,0.177,0.845,0.433,1.201,0.769C25.884,22.018,26.098,22.425,26.098,22.832z"/>
	<path fill="#FFFFFF" d="M44.36,14.174c0,0.392-0.054,0.645-0.16,0.762c-0.107,0.116-0.347,0.253-0.721,0.414
		c-0.41-0.089-0.828-0.187-1.255-0.294c-0.427-0.106-0.827-0.16-1.201-0.16c-0.872,0-1.615,0.28-2.23,0.841
		c-0.614,0.561-0.921,1.259-0.921,2.096c0,0.677,0.097,1.46,0.293,2.35c0.463,2.1,0.694,3.426,0.694,3.978
		c-0.32,0-0.574,0.013-0.761,0.039c-0.187,0.025-0.494,0.09-0.921,0.194c-0.143-0.64-0.32-2.223-0.534-4.748
		c-0.09-1.084-0.223-2.036-0.401-2.854c-0.836,0.499-1.673,0.987-2.509,1.468c-1.121,0.606-1.993,0.908-2.616,0.908h-0.16
		l-0.027-0.641c0-0.747,0.525-1.361,1.575-1.842c2.527-1.156,3.853-1.922,3.978-2.296c0.071-1.744,0.134-3.212,0.187-4.405
		c0.124-2.297,0.578-3.444,1.362-3.444c0.284,0,0.525,0.062,0.721,0.187c0.196,0.125,0.293,0.32,0.293,0.587
		c0,0.481-0.182,1.371-0.547,2.67c-0.365,1.299-0.548,2.278-0.548,2.936c0,0.214,0.009,0.424,0.027,0.628
		c0.018,0.204,0.071,0.485,0.16,0.841c1.762-0.41,3.524-0.819,5.286-1.228C44.048,13.16,44.36,13.498,44.36,14.174z"/>
	<path fill="#FFFFFF" d="M58.749,22.744c-0.356,0.481-0.677,0.846-0.961,1.095c-0.463,0.409-0.899,0.614-1.308,0.614l-0.614-0.267
		c-0.48-0.676-0.827-2.109-1.041-4.298c-0.267-2.616-0.48-4.2-0.64-4.752c-0.624,0.481-1.326,1.513-2.109,3.097
		c-0.624,1.317-1.242,2.626-1.855,3.924c-0.614,1.3-1.081,1.949-1.402,1.949c-0.231,0-0.392-0.116-0.481-0.347
		c-0.089-0.231-0.133-0.489-0.133-0.774c0-0.285,0.027-0.614,0.08-0.988c0.124-0.89,0.187-1.442,0.187-1.655
		c0-1.192,0.027-2.972,0.08-5.34c0.053-2.367,0.08-4.147,0.08-5.339c0-0.605,0.08-1.201,0.24-1.789
		c0.231-0.872,0.57-1.308,1.015-1.308c0.605,0,0.908,0.294,0.908,0.881c0,0.089-0.276,1.477-0.827,4.165
		c-0.285,1.388-0.427,2.492-0.427,3.311c0,1.158,0.116,2.26,0.347,3.311c0.481-0.231,1.531-1.611,3.15-4.138
		c0.676-1.05,1.281-1.575,1.816-1.575c0.747,0,1.192,0.846,1.335,2.536c0.035,1.602,0.084,3.24,0.147,4.912
		c0.062,1.674,0.414,2.546,1.055,2.617L58.749,22.744z"/>
	<path fill="#FFFFFF" d="M67.159,13.747c0,0.534-0.09,1.166-0.267,1.896c-0.071,0.267-0.418,1.38-1.041,3.337
		c-0.124,0.41-0.213,1.055-0.267,1.936c-0.054,0.881-0.143,1.601-0.267,2.162c-0.124,0.561-0.471,1.001-1.041,1.321
		c-0.036-0.053-0.142-0.152-0.32-0.294c-0.249-0.213-0.374-0.427-0.374-0.64c0-0.125,0.031-0.298,0.093-0.521
		c0.062-0.222,0.103-0.369,0.121-0.441c0.089-0.391,0.151-0.845,0.187-1.361c0.035-0.516,0.053-1.015,0.053-1.495
		c0-0.428,0.2-1.557,0.601-3.391c0.4-1.833,0.689-2.857,0.867-3.07c0.178-0.213,0.325-0.351,0.441-0.414
		c0.116-0.062,0.254-0.093,0.414-0.093c0.249,0,0.445,0.116,0.587,0.347C67.088,13.258,67.159,13.498,67.159,13.747z M68.681,8.193
		c0,0.267-0.089,0.521-0.267,0.762c-0.178,0.24-0.4,0.36-0.668,0.36c-0.356,0-0.668-0.16-0.934-0.481
		c-0.267-0.32-0.401-0.667-0.401-1.041c0-0.214,0.08-0.41,0.241-0.588c0.16-0.178,0.364-0.267,0.614-0.267
		c0.356,0,0.681,0.121,0.974,0.361C68.534,7.539,68.681,7.838,68.681,8.193z"/>
	<path fill="#FFFFFF" d="M82.083,23.465c0,0.231-0.125,0.48-0.374,0.747c-0.249,0.267-0.499,0.4-0.747,0.4
		c-0.16,0-0.361-0.062-0.601-0.187c-0.241-0.124-0.405-0.213-0.494-0.267c-1.014-0.57-1.7-1.656-2.055-3.257
		c-0.232-1.015-0.347-2.438-0.347-4.272c0-0.249,0-0.457,0-0.627c0-0.169,0-0.307,0-0.414c-0.624,0.552-1.531,2.474-2.723,5.766
		c-0.552,1.513-1.157,2.528-1.815,3.044c-0.374-0.374-0.623-0.845-0.747-1.415c-0.125-0.57-0.187-1.21-0.187-1.922
		c0-0.445,0.035-1.112,0.106-2.002c0.071-0.89,0.107-1.567,0.107-2.029c0-0.214-0.049-0.588-0.147-1.121
		c-0.098-0.535-0.147-0.881-0.147-1.042c0-0.355,0.084-0.644,0.254-0.867c0.169-0.222,0.431-0.334,0.788-0.334
		c0.534,0,0.89,0.792,1.068,2.376c0.071,0.658,0.107,1.7,0.107,3.123l0.237-0.24c0.335-1.424,0.723-2.607,1.163-3.551
		c0.74-1.584,1.577-2.376,2.511-2.376c0.511,0,0.872,0.48,1.084,1.442c0.159,0.73,0.238,1.682,0.238,2.857c0,0.303,0,0.618,0,0.947
		c0,0.33,0,0.672,0,1.028c0,0.961,0.053,1.683,0.16,2.163c0.107,0.48,0.294,0.792,0.561,0.934c0.516,0.125,0.916,0.214,1.201,0.267
		C81.816,22.762,82.083,23.038,82.083,23.465z"/>
	<path fill="#FFFFFF" d="M95.912,22.984c-0.32,0.374-0.61,0.632-0.868,0.774c-0.258,0.143-0.512,0.214-0.761,0.214
		c-0.107,0-1.032-0.32-2.776-0.961c-1.086-0.391-2.172-0.792-3.257-1.201c-0.018,0.125-0.027,0.294-0.027,0.507
		c0,0.231,0.013,0.525,0.04,0.881c0.027,0.356,0.04,0.543,0.04,0.561c0,0.267-0.142,0.498-0.427,0.694
		c-0.089,0.071-0.365,0.204-0.828,0.401c-0.089-0.09-0.169-0.205-0.24-0.348c-0.072-0.142-0.143-0.32-0.213-0.534
		c-0.143-0.408-0.241-0.943-0.294-1.602c-0.053-0.659-0.08-1.291-0.08-1.896c0-0.214,0-0.374,0-0.481
		c0-1.086,0.098-2.733,0.294-4.941c0.196-2.207,0.294-3.854,0.294-4.941c0-0.249-0.049-0.659-0.147-1.229
		c-0.098-0.57-0.147-0.944-0.147-1.122c0-0.694,0.338-1.175,1.015-1.442c0.516,1.247,0.774,2.556,0.774,3.927
		c0,0.606-0.062,1.336-0.187,2.19c-0.285,1.96-0.427,3.171-0.427,3.634l0.08,0.961c1.264-0.356,2.474-1.21,3.631-2.563
		c0.961-1.122,1.744-2.412,2.349-3.872c0.303,0.16,0.548,0.352,0.734,0.574c0.187,0.223,0.28,0.494,0.28,0.814
		c0,0.837-0.534,1.753-1.602,2.75c-0.107,0.107-1.112,0.899-3.017,2.376c-1.086,0.854-1.628,1.495-1.628,1.922
		c0,0.837,1.477,1.815,4.432,2.937C94.586,22.54,95.574,22.877,95.912,22.984z"/>
	<path fill="#FFFFFF" d="M121.996,21.222c0,0.712-0.801,1.406-2.402,2.082c-1.371,0.57-2.474,0.855-3.311,0.855
		c-1.068,0-1.949-0.196-2.643-0.588c-0.872-0.498-1.308-1.255-1.308-2.269c0-0.498,0.178-0.823,0.534-0.974
		c0.356-0.151,0.828-0.227,1.415-0.227c0.32,0,0.552,0.072,0.694,0.214c0.142,0.142,0.267,0.4,0.374,0.774l-1.682,0.454v0.267
		c0,0.445,0.391,0.766,1.175,0.961c0.551,0.142,1.121,0.213,1.708,0.213c0.641,0,1.362-0.205,2.163-0.614
		c0.925-0.48,1.388-1.005,1.388-1.575c0-0.818-0.69-1.429-2.069-1.828c-1.379-0.401-2.736-0.788-4.071-1.161
		c-1.442-0.605-2.163-1.549-2.163-2.83c0-1.352,0.845-2.456,2.537-3.311c1.406-0.712,2.857-1.068,4.352-1.068
		c0.569,0,1.032,0.196,1.388,0.588c0.356,0.392,0.535,0.881,0.535,1.468c0,0.534-0.147,0.957-0.441,1.268
		c-0.294,0.312-0.699,0.467-1.215,0.467c0.017-0.427,0.027-0.756,0.027-0.988c0-0.534-0.103-0.903-0.307-1.108
		c-0.205-0.205-0.574-0.307-1.108-0.307c-0.836,0-1.718,0.276-2.643,0.828c-1.05,0.624-1.575,1.317-1.575,2.083
		c0,0.677,0.747,1.291,2.243,1.842c2.652,0.979,4.04,1.495,4.165,1.549C121.248,19.051,121.996,20.03,121.996,21.222z"/>
	<path fill="#FFFFFF" d="M137.961,17.831c0,1.798-0.801,3.373-2.403,4.726c-1.513,1.282-3.195,1.923-5.046,1.923
		c-1.388,0-2.47-0.414-3.244-1.242c-0.775-0.828-1.161-1.945-1.161-3.351c0-1.886,0.618-3.457,1.855-4.712
		c1.237-1.255,2.807-1.883,4.712-1.883c1.656,0,2.919,0.33,3.791,0.989C137.462,15.029,137.961,16.212,137.961,17.831z
		 M136.653,17.511c0-1.049-0.445-1.815-1.335-2.295c-0.694-0.374-1.602-0.561-2.723-0.561c-1.264,0-2.408,0.547-3.431,1.641
		c-1.024,1.095-1.536,2.282-1.536,3.564c0,0.997,0.294,1.78,0.881,2.35c0.588,0.569,1.37,0.854,2.35,0.854
		c1.495,0,2.834-0.556,4.018-1.669C136.061,20.284,136.653,18.989,136.653,17.511z"/>
	<path fill="#FFFFFF" d="M155.741,5.991c0,0.514-0.12,1.01-0.36,1.488c-0.24,0.479-0.574,0.886-1.001,1.222
		c-0.036-0.159-0.054-0.349-0.054-0.569c0-0.222,0-0.394,0-0.518c0-0.936-0.053-1.546-0.16-1.829
		c-0.213-0.565-0.712-0.848-1.495-0.848c-1.566,0-2.803,0.817-3.711,2.451c-0.765,1.367-1.148,2.894-1.148,4.581
		c0,2.256,0.347,3.623,1.041,4.102c0.463,0.32,1.825,0.48,4.085,0.48c0.41,0,0.783,0.107,1.122,0.32
		c0.338,0.213,0.507,0.517,0.507,0.908c0,0.374-0.241,0.561-0.721,0.561c-0.25,0-0.641-0.08-1.175-0.24
		c-0.534-0.16-0.943-0.24-1.228-0.24c-0.303,0-0.574,0.027-0.814,0.08c-0.241,0.054-0.592,0.152-1.055,0.294
		c0.356,1.084,0.627,2.005,0.814,2.76c0.187,0.756,0.281,1.329,0.281,1.72c0,0.427-0.085,0.783-0.254,1.067
		c-0.169,0.285-0.45,0.489-0.841,0.614c-0.285-1.209-0.543-2.24-0.774-3.094c-0.16-0.551-0.463-1.574-0.908-3.067
		c-0.054,0.018-1.219,0.338-3.497,0.961c-0.517,0.143-1.033,0.285-1.549,0.427c-0.427,0-0.819-0.062-1.175-0.187
		c0.249-0.64,1.112-1.217,2.59-1.733c0.231-0.088,1.281-0.391,3.15-0.906v-0.24c0-0.408-0.223-1.386-0.668-2.932
		c-0.231-0.8-0.347-1.448-0.347-1.946c0-1.866,0.632-3.723,1.896-5.571c1.406-2.043,3.017-3.066,4.833-3.066
		c0.783,0,1.415,0.292,1.895,0.877C155.501,4.503,155.741,5.193,155.741,5.991z"/>
	<path fill="#FFFFFF" d="M171.6,14.174c0,0.392-0.054,0.645-0.16,0.762c-0.107,0.116-0.347,0.253-0.721,0.414
		c-0.41-0.089-0.828-0.187-1.255-0.294c-0.427-0.106-0.827-0.16-1.201-0.16c-0.872,0-1.615,0.28-2.23,0.841
		c-0.614,0.561-0.921,1.259-0.921,2.096c0,0.677,0.097,1.46,0.293,2.35c0.463,2.1,0.694,3.426,0.694,3.978
		c-0.32,0-0.574,0.013-0.761,0.039c-0.187,0.025-0.494,0.09-0.921,0.194c-0.143-0.64-0.32-2.223-0.534-4.748
		c-0.09-1.084-0.223-2.036-0.401-2.854c-0.836,0.499-1.673,0.987-2.509,1.468c-1.121,0.606-1.993,0.908-2.616,0.908h-0.16
		l-0.027-0.641c0-0.747,0.525-1.361,1.575-1.842c2.527-1.156,3.853-1.922,3.978-2.296c0.071-1.744,0.134-3.212,0.187-4.405
		c0.124-2.297,0.578-3.444,1.362-3.444c0.284,0,0.525,0.062,0.721,0.187c0.196,0.125,0.293,0.32,0.293,0.587
		c0,0.481-0.183,1.371-0.547,2.67c-0.365,1.299-0.548,2.278-0.548,2.936c0,0.214,0.009,0.424,0.027,0.628
		c0.018,0.204,0.071,0.485,0.16,0.841c1.762-0.41,3.524-0.819,5.286-1.228C171.288,13.16,171.6,13.498,171.6,14.174z"/>
	<path fill="#FFFFFF" d="M188.526,15.05c0,2.012-0.231,3.891-0.694,5.636c-0.694,2.635-1.771,3.953-3.23,3.953
		c-0.606,0-1.14-0.454-1.602-1.361c-0.427-1.104-0.712-1.833-0.854-2.19c-0.428,0.178-1.309,0.846-2.643,2.003
		c-1.068,0.926-2.074,1.388-3.017,1.388c-0.766,0-1.148-0.374-1.148-1.122c0-0.605,0.169-1.246,0.507-1.922
		c0.498-0.979,0.997-1.966,1.495-2.964c0.249-0.926,0.516-1.864,0.801-2.817c0.285-0.952,0.898-1.606,1.842-1.962
		c0.142,0.392,0.213,0.783,0.213,1.174c0,0.872-0.437,2.216-1.308,4.031c-0.872,1.816-1.308,2.946-1.308,3.391v0.454
		c1.34-0.391,2.457-1.281,3.35-2.67c0.429-0.658,0.991-1.851,1.688-3.577c0.482-1.192,0.902-1.789,1.26-1.789
		c0.215,0,0.384,0.12,0.509,0.36c0.125,0.241,0.188,0.494,0.188,0.761c0,0.356-0.063,0.792-0.187,1.308
		c-0.285,1.175-0.427,1.932-0.427,2.269c0,0.677,0.084,1.371,0.252,2.083c0.055,0.197,0.177,0.614,0.363,1.255
		c1.093-0.374,1.877-1.353,2.354-2.939c0.317-1.068,0.476-2.386,0.476-3.953c0-0.48-0.16-0.988-0.481-1.523
		c-0.73-1.229-1.094-1.914-1.094-2.057c0-0.267,0.08-0.521,0.24-0.762c0.16-0.24,0.374-0.467,0.641-0.681
		c0.712,0.339,1.21,0.935,1.495,1.79C188.42,13.261,188.526,14.071,188.526,15.05z"/>
	<path fill="#FFFFFF" d="M204.945,23.518c-0.107,0.267-0.294,0.49-0.561,0.667c-0.267,0.178-0.552,0.267-0.854,0.267
		c-0.747,0-1.38-0.809-1.896-2.429c-0.196-0.624-0.383-1.255-0.561-1.896c-1.495,1.263-2.67,2.234-3.524,2.91
		c-1.602,1.264-2.928,1.896-3.978,1.896c-0.481,0-0.828-0.156-1.041-0.468c-0.213-0.311-0.32-0.725-0.32-1.241
		c0-1.388,0.614-3.052,1.842-4.992c1.156-1.815,2.367-3.15,3.631-4.005c0.658-0.445,1.411-0.788,2.256-1.028
		c0.845-0.24,1.695-0.36,2.55-0.36c0.569,0,0.979,0.232,1.228,0.694c0.196,0.356,0.294,0.846,0.294,1.468
		c0,0.552-0.116,1.219-0.347,2.003c-0.517,1.727-0.775,2.83-0.775,3.311c0,0.854,0.267,1.477,0.801,1.869
		C204.385,22.682,204.803,23.127,204.945,23.518z M202.276,14.655c-0.125-0.125-0.25-0.249-0.374-0.374
		c-0.124-0.125-0.303-0.187-0.534-0.187c-1.584,0-3.199,0.992-4.846,2.977c-1.646,1.985-2.469,3.777-2.469,5.38l0.08,0.774
		c1.335-0.303,2.545-0.916,3.631-1.842c0.925-0.783,1.789-1.815,2.59-3.097C200.923,17.396,201.564,16.186,202.276,14.655z"/>
	<path fill="#FFFFFF" d="M219.682,13.907c0,0.249-0.111,0.494-0.334,0.734c-0.223,0.24-0.476,0.36-0.76,0.36
		c-0.178,0-0.561-0.382-1.148-1.148c-0.587-0.765-1.148-1.148-1.682-1.148c-1.157,0-2.301,0.65-3.431,1.95
		c-1.13,1.3-1.695,2.538-1.695,3.713c0,0.339,0.062,1.007,0.187,2.003c0.071,0.57,0.107,0.961,0.107,1.175
		c0,0.837-0.08,1.407-0.24,1.71c-0.214,0.374-0.694,0.677-1.442,0.908c0-0.802-0.049-2.133-0.147-3.993
		c-0.098-1.861-0.147-3.068-0.147-3.62c0-1.496,0.338-2.841,1.015-4.034h0.24c0.035,0.036,0.285,0.267,0.747,0.694
		c0.196,0.178,0.347,0.338,0.454,0.481l0.48-0.481l0.347-0.027l-0.32,0.053c0.836-0.48,1.548-0.854,2.136-1.121
		c0.979-0.444,1.726-0.668,2.243-0.668c0.694,0,1.406,0.232,2.136,0.694C219.264,12.679,219.682,13.267,219.682,13.907z"/>
	<path fill="#FFFFFF" d="M233.698,20.608l-0.267,0.24c0,1.015-1.246,1.905-3.738,2.67c-2.012,0.623-3.702,0.934-5.073,0.934
		c-1.122,0-1.945-0.311-2.47-0.934c-0.525-0.623-0.788-1.513-0.788-2.67c0-1.779,0.801-3.631,2.403-5.553
		c1.69-2.029,3.399-3.043,5.126-3.043c0.338,0,0.583,0.111,0.734,0.334c0.151,0.223,0.226,0.52,0.226,0.894
		c0,1.318-0.596,2.564-1.789,3.738c-0.338,0.338-1.451,1.193-3.337,2.563c-1.211,0.891-1.815,1.611-1.815,2.163
		c0,0.463,0.249,0.828,0.747,1.095c0.498,0.267,1.005,0.4,1.522,0.4c0.676,0,1.802-0.24,3.377-0.72
		c1.575-0.481,2.558-0.935,2.95-1.362c0.231-0.32,0.409-0.569,0.534-0.747c0.231-0.32,0.436-0.516,0.614-0.587l1.041,0.32V20.608z
		 M228.172,13.934l-0.454,0.454c-0.213,0.018-0.436,0.093-0.668,0.227c-0.231,0.134-0.41,0.227-0.534,0.28
		c-0.57,0.249-1.104,0.65-1.602,1.202c-0.213,0.231-0.881,1.174-2.002,2.83l0.427,0.027c1.068,0,2.14-0.565,3.217-1.695
		C227.633,16.127,228.172,15.02,228.172,13.934z"/>
</g>
</svg>
