<?xml version="1.0" encoding="utf-8"?>
<!-- Generator: Adobe Illustrator 17.0.0, SVG Export Plug-In . SVG Version: 6.00 Build 0)  -->
<!DOCTYPE svg PUBLIC "-//W3C//DTD SVG 1.1//EN" "http://www.w3.org/Graphics/SVG/1.1/DTD/svg11.dtd">
<svg version="1.1" id="frontpageLogo" xmlns="http://www.w3.org/2000/svg" xmlns:xlink="http://www.w3.org/1999/xlink" x="0px" y="0px"
	 width="400px" height="59px" viewBox="0 0 400 59" enable-background="new 0 0 400 59" xml:space="preserve">
<g>
	<polyline fill="#FFFFFF" points="2.992,9.308 52.401,9.308 52.401,19.256 34.18,19.256 34.18,49.316 21.214,49.316 21.214,19.256
		2.992,19.256 2.992,9.222 	"/>
</g>
<g>
	<path fill="#FFFFFF" d="M58.071,9.308h39.131c9.987,0,12.674,4.697,12.674,11.882v2.541c0,5.363-1.284,8.51-7.244,9.838v0.111
		c3.856,0.663,7.069,2.267,7.069,8.842v6.795H96.735v-4.806c0-4.2-1.285-5.583-5.317-5.583H71.036v10.39H58.071V9.308z
		 M71.037,28.983h21.434c3.504,0,4.79-1.326,4.79-4.201v-1.323c0-3.54-1.87-4.201-5.958-4.201H71.037V28.983z"/>
</g>
<g>
	<rect x="119.342" y="9.308" fill="#FFFFFF" width="12.965" height="40.009"/>
</g>
<g>
	<polygon fill="#FFFFFF" points="141.769,9.308 185.922,9.308 185.922,18.924 154.736,18.924 154.736,26.387 184.463,26.387
		184.463,35.669 154.736,35.669 154.736,49.317 141.768,49.317 	"/>
</g>
<g>
	<path fill="#FFFFFF" d="M192.821,23.347c0-11.715,6.949-14.477,18.631-14.477h20.79c11.68,0,18.631,2.762,18.631,14.477v11.935
		c0,11.717-6.95,14.479-18.631,14.479h-20.791c-11.681,0-18.631-2.762-18.631-14.479L192.821,23.347L192.821,23.347z
		 M206.135,31.468c0,5.803,1.285,8.014,7.417,8.014h16.586c6.135,0,7.417-2.212,7.417-8.014V27.16c0-4.973-1.282-8.013-8.115-8.013
		h-15.187c-6.833,0-8.119,3.039-8.119,8.013L206.135,31.468L206.135,31.468z"/>
</g>
<g>
	<path fill="#FFFFFF" d="M258.704,9.308h39.13c9.991,0,12.675,4.697,12.675,11.882v2.541c0,5.363-1.284,8.51-7.241,9.838v0.111
		c3.855,0.663,7.069,2.267,7.069,8.842v6.795h-12.969v-4.806c0-4.2-1.284-5.583-5.314-5.583h-20.382v10.39h-12.969L258.704,9.308
		L258.704,9.308z M271.672,28.983h21.432c3.506,0,4.788-1.326,4.788-4.201v-1.323c0-3.54-1.869-4.201-5.955-4.201h-20.265V28.983
		L271.672,28.983z"/>
</g>
<g>
	<polygon fill="#FFFFFF" points="319.276,9.308 332.237,9.308 332.237,24.009 338.315,24.009 354.665,9.308 372.305,9.308
		349.411,28.871 374.992,49.316 356.652,49.316 337.963,33.957 332.238,33.957 332.238,49.317 319.277,49.317 319.277,9.308 	"/>
</g>
<g>
	<rect x="382.76" y="38.487" fill="#CC5A0D" width="12.264" height="11.273"/>
</g>
</svg>
